AmstelvarA2-Italic_XLCS183.ufo
<glyph name="numbersign" format="2">
  <advance width="1546"/>
  <unicode hex="0023"/>
  <outline>
    <contour>
      <point x="179" y="483" type="line"/>
      <point x="224" y="638" type="line"/>
      <point x="1240" y="638" type="line"/>
      <point x="1195" y="483" type="line"/>
    </contour>
    <contour>
      <point x="293" y="890" type="line"/>
      <point x="338" y="1045" type="line"/>
      <point x="1354" y="1045" type="line"/>
      <point x="1309" y="890" type="line"/>
    </contour>
    <contour>
      <point x="239" y="22" type="line"/>
      <point x="797" y="1539" type="line"/>
      <point x="896" y="1512" type="line"/>
      <point x="338" y="-5" type="line"/>
    </contour>
    <contour>
      <point x="652" y="22" type="line"/>
      <point x="1210" y="1539" type="line"/>
      <point x="1309" y="1512" type="line"/>
      <point x="751" y="-5" type="line"/>
    </contour>
  </outline>
</glyph>
<glyph name="ampersand" format="2">
  <advance width="1606"/>
  <unicode hex="0026"/>
  <outline>
    <contour>
      <point x="991" y="-10" type="line"/>
      <point x="904" y="164" type="line"/>
      <point x="837" y="82"/>
      <point x="611" y="-23"/>
      <point x="440" y="-23" type="qcurve" smooth="yes"/>
      <point x="258" y="-23"/>
      <point x="58" y="226"/>
      <point x="88" y="400" type="qcurve" smooth="yes"/>
      <point x="117" y="571"/>
      <point x="420" y="783"/>
      <point x="587" y="807" type="qcurve"/>
      <point x="470" y="837"/>
      <point x="356" y="1060"/>
      <point x="391" y="1211" type="qcurve" smooth="yes"/>
      <point x="428" y="1371"/>
      <point x="677" y="1520"/>
      <point x="837" y="1520" type="qcurve" smooth="yes"/>
      <point x="940" y="1520"/>
      <point x="1078" y="1460"/>
      <point x="1099" y="1460" type="qcurve" smooth="yes"/>
      <point x="1115" y="1460"/>
      <point x="1143" y="1466"/>
      <point x="1178" y="1487" type="qcurve"/>
      <point x="1237" y="1487" type="line"/>
      <point x="1153" y="1102" type="line"/>
      <point x="1059" y="1102" type="line"/>
      <point x="1043" y="1331" type="line"/>
      <point x="1008" y="1358"/>
      <point x="896" y="1401"/>
      <point x="831" y="1401" type="qcurve" smooth="yes"/>
      <point x="721" y="1401"/>
      <point x="576" y="1289"/>
      <point x="554" y="1177" type="qcurve" smooth="yes"/>
      <point x="529" y="1045"/>
      <point x="678" y="841"/>
      <point x="952" y="841" type="qcurve" smooth="yes"/>
      <point x="1194" y="841"/>
      <point x="1395" y="869"/>
      <point x="1445" y="916" type="qcurve"/>
      <point x="1513" y="851" type="line"/>
      <point x="1494" y="797"/>
      <point x="1369" y="697"/>
      <point x="1275" y="697" type="qcurve" smooth="yes"/>
      <point x="1188" y="697"/>
      <point x="843" y="736"/>
      <point x="773" y="736" type="qcurve" smooth="yes"/>
      <point x="572" y="736"/>
      <point x="326" y="580"/>
      <point x="296" y="428" type="qcurve" smooth="yes"/>
      <point x="267" y="282"/>
      <point x="373" y="102"/>
      <point x="516" y="102" type="qcurve" smooth="yes"/>
      <point x="674" y="102"/>
      <point x="915" y="274"/>
      <point x="986" y="450" type="qcurve" smooth="yes"/>
      <point x="1115" y="769" type="line"/>
      <point x="1276" y="762" type="line"/>
      <point x="1146" y="478"/>
      <point x="1053" y="172"/>
      <point x="1092" y="40" type="qcurve"/>
    </contour>
  </outline>
</glyph>
<glyph name="parenleft" format="2">
  <advance width="820"/>
  <unicode hex="0028"/>
  <outline>
    <contour>
      <point x="138" y="688" type="qcurve" smooth="yes"/>
      <point x="174" y="940"/>
      <point x="524" y="1427"/>
      <point x="699" y="1543" type="qcurve"/>
      <point x="760" y="1481" type="line"/>
      <point x="617" y="1350"/>
      <point x="367" y="925"/>
      <point x="333" y="688" type="qcurve" smooth="yes"/>
      <point x="300" y="453"/>
      <point x="427" y="23"/>
      <point x="536" y="-104" type="qcurve"/>
      <point x="459" y="-166" type="line"/>
      <point x="318" y="-50"/>
      <point x="102" y="427"/>
    </contour>
  </outline>
</glyph>
<glyph name="parenright" format="2">
  <advance width="820"/>
  <unicode hex="0029"/>
  <outline>
    <contour>
      <point x="677" y="691" type="qcurve" smooth="yes"/>
      <point x="640" y="430"/>
      <point x="290" y="-47"/>
      <point x="116" y="-163" type="qcurve"/>
      <point x="56" y="-101" type="line"/>
      <point x="201" y="25"/>
      <point x="449" y="455"/>
      <point x="482" y="691" type="qcurve" smooth="yes"/>
      <point x="515" y="927"/>
      <point x="384" y="1353"/>
      <point x="278" y="1483" type="qcurve"/>
      <point x="356" y="1545" type="line"/>
      <point x="497" y="1429"/>
      <point x="712" y="942"/>
    </contour>
  </outline>
</glyph>
<glyph name="slash" format="2">
  <advance width="878"/>
  <unicode hex="002F"/>
  <outline>
    <contour>
      <point x="20" y="-125" type="line"/>
      <point x="636" y="1548" type="line"/>
      <point x="761" y="1518" type="line"/>
      <point x="145" y="-155" type="line"/>
    </contour>
  </outline>
</glyph>
<glyph name="at" format="2">
  <advance width="1931"/>
  <unicode hex="0040"/>
  <outline>
    <contour>
      <point x="544" y="567" type="qcurve" smooth="yes"/>
      <point x="544" y="811"/>
      <point x="941" y="1170"/>
      <point x="1134" y="1170" type="qcurve" smooth="yes"/>
      <point x="1150" y="1170"/>
      <point x="1182" y="1164"/>
      <point x="1197" y="1159" type="qcurve"/>
      <point x="1291" y="1210" type="line"/>
      <point x="1333" y="1210" type="line"/>
      <point x="1391" y="1097" type="line"/>
      <point x="1277" y="663" type="line"/>
      <point x="1246" y="492" type="line"/>
      <point x="1254" y="474"/>
      <point x="1279" y="465"/>
      <point x="1313" y="465" type="qcurve" smooth="yes"/>
      <point x="1434" y="465"/>
      <point x="1606" y="667"/>
      <point x="1643" y="858" type="qcurve" smooth="yes"/>
      <point x="1686" y="1082"/>
      <point x="1421" y="1384"/>
      <point x="1114" y="1384" type="qcurve" smooth="yes"/>
      <point x="798" y="1384"/>
      <point x="398" y="1033"/>
      <point x="342" y="737" type="qcurve" smooth="yes"/>
      <point x="293" y="471"/>
      <point x="578" y="99"/>
      <point x="864" y="99" type="qcurve" smooth="yes"/>
      <point x="1004" y="99"/>
      <point x="1195" y="163"/>
      <point x="1246" y="195" type="qcurve"/>
      <point x="1295" y="108" type="line"/>
      <point x="1226" y="57"/>
      <point x="989" y="-30"/>
      <point x="834" y="-30" type="qcurve" smooth="yes"/>
      <point x="496" y="-30"/>
      <point x="129" y="399"/>
      <point x="192" y="725" type="qcurve" smooth="yes"/>
      <point x="257" y="1058"/>
      <point x="776" y="1520"/>
      <point x="1140" y="1520" type="qcurve" smooth="yes"/>
      <point x="1480" y="1520"/>
      <point x="1851" y="1172"/>
      <point x="1791" y="863" type="qcurve" smooth="yes"/>
      <point x="1745" y="630"/>
      <point x="1446" y="354"/>
      <point x="1303" y="354" type="qcurve" smooth="yes"/>
      <point x="1228" y="354"/>
      <point x="1112" y="446"/>
      <point x="1103" y="507" type="qcurve"/>
      <point x="995" y="412"/>
      <point x="811" y="356"/>
      <point x="746" y="356" type="qcurve" smooth="yes"/>
      <point x="639" y="356"/>
      <point x="544" y="478"/>
    </contour>
    <contour>
      <point x="695" y="609" type="qcurve" smooth="yes"/>
      <point x="695" y="548"/>
      <point x="754" y="467"/>
      <point x="817" y="467" type="qcurve" smooth="yes"/>
      <point x="925" y="467"/>
      <point x="1127" y="620"/>
      <point x="1160" y="763" type="qcurve" smooth="yes"/>
      <point x="1215" y="1003" type="line"/>
      <point x="1212" y="1036"/>
      <point x="1143" y="1057"/>
      <point x="1105" y="1057" type="qcurve" smooth="yes"/>
      <point x="922" y="1057"/>
      <point x="695" y="799"/>
    </contour>
  </outline>
</glyph>
<glyph name="bracketleft" format="2">
  <advance width="858"/>
  <unicode hex="005B"/>
  <outline>
    <contour>
      <point x="231" y="508" type="line"/>
      <point x="385" y="1362" type="line"/>
      <point x="370" y="1382" type="line"/>
      <point x="393" y="1500" type="line"/>
      <point x="851" y="1500" type="line"/>
      <point x="827" y="1381" type="line"/>
      <point x="565" y="1362" type="line"/>
      <point x="387" y="508" type="line"/>
      <point x="234" y="-342" type="line"/>
      <point x="489" y="-361" type="line"/>
      <point x="466" y="-480" type="line"/>
      <point x="8" y="-480" type="line"/>
      <point x="31" y="-362" type="line"/>
      <point x="54" y="-342" type="line"/>
    </contour>
  </outline>
</glyph>
<glyph name="backslash" format="2">
  <advance width="878"/>
  <unicode hex="005C"/>
  <outline>
    <contour>
      <point x="233" y="1522" type="line"/>
      <point x="362" y="1555" type="line"/>
      <point x="653" y="-118" type="line"/>
      <point x="524" y="-151" type="line"/>
    </contour>
  </outline>
</glyph>
<glyph name="bracketright" format="2">
  <advance width="858"/>
  <unicode hex="005D"/>
  <outline>
    <contour>
      <point x="-104" y="-480" type="line"/>
      <point x="-81" y="-361" type="line"/>
      <point x="182" y="-342" type="line"/>
      <point x="359" y="508" type="line"/>
      <point x="513" y="1362" type="line"/>
      <point x="257" y="1381" type="line"/>
      <point x="281" y="1500" type="line"/>
      <point x="739" y="1500" type="line"/>
      <point x="716" y="1382" type="line"/>
      <point x="693" y="1362" type="line"/>
      <point x="515" y="508" type="line"/>
      <point x="362" y="-342" type="line"/>
      <point x="377" y="-362" type="line"/>
      <point x="354" y="-480" type="line"/>
    </contour>
  </outline>
</glyph>
<glyph name="asciicircum" format="2">
  <advance width="1539"/>
  <unicode hex="005E"/>
  <outline>
    <contour>
      <point x="267" y="926" type="line"/>
      <point x="333" y="988"/>
      <point x="899" y="1524"/>
      <point x="899" y="1524" type="qcurve"/>
      <point x="899" y="1524"/>
      <point x="1297" y="989"/>
      <point x="1339" y="927" type="qcurve"/>
      <point x="1245" y="829" type="line"/>
      <point x="1133" y="953"/>
      <point x="864" y="1277"/>
      <point x="864" y="1277" type="qcurve"/>
      <point x="864" y="1277"/>
      <point x="494" y="958"/>
      <point x="350" y="831" type="qcurve"/>
    </contour>
  </outline>
</glyph>
<glyph name="a" format="2">
  <advance width="1250"/>
  <unicode hex="0061"/>
  <anchor x="365" y="0" name="bottom"/>
  <anchor x="752" y="0" name="ogonek"/>
  <anchor x="628" y="1000" name="top"/>
  <outline>
    <contour>
      <point x="14" y="248" type="qcurve" smooth="yes"/>
      <point x="14" y="548"/>
      <point x="448" y="991"/>
      <point x="658" y="991" type="qcurve" smooth="yes"/>
      <point x="676" y="991"/>
      <point x="731" y="978"/>
      <point x="751" y="967" type="qcurve"/>
      <point x="830" y="1020" type="line"/>
      <point x="876" y="1020" type="line"/>
      <point x="922" y="837" type="line"/>
      <point x="815" y="367" type="line"/>
      <point x="785" y="213" type="line"/>
      <point x="784" y="145"/>
      <point x="795" y="80"/>
      <point x="820" y="18" type="qcurve"/>
      <point x="656" y="-9" type="line"/>
      <point x="629" y="35"/>
      <point x="611" y="129"/>
      <point x="615" y="183" type="qcurve"/>
      <point x="505" y="78"/>
      <point x="306" y="-10"/>
      <point x="235" y="-10" type="qcurve" smooth="yes"/>
      <point x="118" y="-10"/>
      <point x="14" y="139"/>
    </contour>
    <contour>
      <point x="179" y="300" type="qcurve" smooth="yes"/>
      <point x="179" y="225"/>
      <point x="243" y="127"/>
      <point x="312" y="127" type="qcurve" smooth="yes"/>
      <point x="430" y="127"/>
      <point x="651" y="314"/>
      <point x="687" y="491" type="qcurve" smooth="yes"/>
      <point x="747" y="786" type="line"/>
      <point x="744" y="826"/>
      <point x="668" y="852"/>
      <point x="627" y="852" type="qcurve" smooth="yes"/>
      <point x="427" y="852"/>
      <point x="179" y="533"/>
    </contour>
  </outline>
</glyph>
<glyph name="b" format="2">
  <advance width="1221"/>
  <unicode hex="0062"/>
  <anchor x="579" y="0" name="bottom"/>
  <anchor x="579" y="1533" name="top"/>
  <outline>
    <contour>
      <point x="56" y="241" type="qcurve" smooth="yes"/>
      <point x="130" y="633" type="line"/>
      <point x="277" y="1410" type="line"/>
      <point x="143" y="1502" type="line"/>
      <point x="171" y="1574" type="line"/>
      <point x="382" y="1608" type="line"/>
      <point x="469" y="1538" type="line"/>
      <point x="287" y="601" type="line"/>
      <point x="215" y="227" type="line" smooth="yes"/>
      <point x="203" y="165"/>
      <point x="237" y="116"/>
      <point x="284" y="116" type="qcurve" smooth="yes"/>
      <point x="504" y="116"/>
      <point x="784" y="459"/>
      <point x="784" y="684" type="qcurve" smooth="yes"/>
      <point x="784" y="788"/>
      <point x="718" y="855"/>
      <point x="645" y="855" type="qcurve" smooth="yes"/>
      <point x="543" y="855"/>
      <point x="306" y="693"/>
      <point x="199" y="571" type="qcurve"/>
      <point x="225" y="712" type="line"/>
      <point x="307" y="818"/>
      <point x="609" y="1003"/>
      <point x="727" y="1003" type="qcurve" smooth="yes"/>
      <point x="832" y="1003"/>
      <point x="956" y="874"/>
      <point x="956" y="709" type="qcurve" smooth="yes"/>
      <point x="956" y="406"/>
      <point x="526" y="-13"/>
      <point x="246" y="-13" type="qcurve" smooth="yes"/>
      <point x="126" y="-13"/>
      <point x="36" y="137"/>
    </contour>
  </outline>
</glyph>
<glyph name="c" format="2">
  <advance width="998"/>
  <unicode hex="0063"/>
  <anchor x="342.77777777777777" y="0" name="bottom"/>
  <anchor x="599.7777777777778" y="1000" name="top"/>
  <outline>
    <contour>
      <point x="11.777777777777786" y="503" type="qcurve" smooth="yes"/>
      <point x="69.77777777777779" y="740"/>
      <point x="432.77777777777777" y="1017"/>
      <point x="616.7777777777778" y="1017" type="qcurve" smooth="yes"/>
      <point x="712.7777777777778" y="1017"/>
      <point x="845.7777777777778" y="924"/>
      <point x="845.7777777777778" y="836" type="qcurve" smooth="yes"/>
      <point x="845.7777777777778" y="759"/>
      <point x="768.7777777777778" y="639"/>
      <point x="702.7777777777778" y="626" type="qcurve"/>
      <point x="679.7777777777778" y="653" type="line"/>
      <point x="679.7777777777778" y="826" type="line" smooth="yes"/>
      <point x="679.7777777777778" y="851"/>
      <point x="622.7777777777778" y="888"/>
      <point x="561.7777777777778" y="888" type="qcurve" smooth="yes"/>
      <point x="427.77777777777777" y="888"/>
      <point x="213.77777777777777" y="688"/>
      <point x="169.77777777777777" y="497" type="qcurve" smooth="yes"/>
      <point x="131.77777777777777" y="334"/>
      <point x="233.77777777777777" y="119"/>
      <point x="384.77777777777777" y="119" type="qcurve" smooth="yes"/>
      <point x="499.77777777777777" y="119"/>
      <point x="680.7777777777778" y="227"/>
      <point x="742.7777777777778" y="316" type="qcurve"/>
      <point x="800.7777777777778" y="252" type="line"/>
      <point x="800.7777777777778" y="223" type="line"/>
      <point x="736.7777777777778" y="137"/>
      <point x="479.77777777777777" y="-17"/>
      <point x="327.77777777777777" y="-17" type="qcurve" smooth="yes"/>
      <point x="131.77777777777777" y="-17"/>
      <point x="-44.222222222222214" y="274"/>
    </contour>
  </outline>
</glyph>
<glyph name="f" format="2">
  <advance width="725"/>
  <unicode hex="0066"/>
  <anchor x="230" y="0" name="bottom"/>
  <anchor x="567" y="1536" name="top"/>
  <outline>
    <contour>
      <point x="-338" y="-405" type="line" smooth="yes"/>
      <point x="-328" y="-305" type="line"/>
      <point x="-194" y="-303" type="line" smooth="yes"/>
      <point x="-76" y="-301"/>
      <point x="29" y="-155"/>
      <point x="83" y="147" type="qcurve" smooth="yes"/>
      <point x="218" y="905" type="line"/>
      <point x="230" y="942" type="line"/>
      <point x="297" y="1269" type="line" smooth="yes"/>
      <point x="333" y="1445"/>
      <point x="491" y="1582"/>
      <point x="601" y="1582" type="qcurve" smooth="yes"/>
      <point x="686" y="1582"/>
      <point x="784" y="1511"/>
      <point x="784" y="1461" type="qcurve" smooth="yes"/>
      <point x="784" y="1420"/>
      <point x="730" y="1369"/>
      <point x="703" y="1369" type="qcurve" smooth="yes"/>
      <point x="687" y="1369"/>
      <point x="681" y="1378"/>
      <point x="681" y="1396" type="qcurve" smooth="yes"/>
      <point x="681" y="1423"/>
      <point x="638" y="1452"/>
      <point x="604" y="1452" type="qcurve" smooth="yes"/>
      <point x="543" y="1452"/>
      <point x="449" y="1363"/>
      <point x="434" y="1263" type="qcurve" smooth="yes"/>
      <point x="384" y="938" type="line"/>
      <point x="383" y="913" type="line"/>
      <point x="252" y="214" type="line" smooth="yes"/>
      <point x="172" y="-210"/>
      <point x="-7" y="-447"/>
      <point x="-153" y="-447" type="qcurve"/>
    </contour>
    <contour>
      <point x="39" y="864" type="line"/>
      <point x="33" y="938" type="line"/>
      <point x="242" y="980" type="line"/>
      <point x="602" y="980" type="line"/>
      <point x="592" y="858" type="line"/>
      <point x="329" y="865" type="line"/>
      <point x="242" y="847" type="line"/>
    </contour>
  </outline>
</glyph>
<glyph name="h" format="2">
  <advance width="1314"/>
  <unicode hex="0068"/>
  <anchor x="431" y="0" name="bottom"/>
  <anchor x="358" y="1202" name="center"/>
  <anchor x="435" y="1534" name="top"/>
  <outline>
    <contour>
      <point x="67" y="-23" type="line"/>
      <point x="25" y="56" type="line"/>
      <point x="128" y="527" type="line"/>
      <point x="286" y="1404" type="line"/>
      <point x="182" y="1500" type="line"/>
      <point x="210" y="1572" type="line"/>
      <point x="391" y="1602" type="line"/>
      <point x="478" y="1532" type="line"/>
      <point x="295" y="588" type="line"/>
      <point x="210" y="87" type="line"/>
      <point x="241" y="0" type="line"/>
    </contour>
    <contour>
      <point x="703" y="-14" type="line"/>
      <point x="662" y="75" type="line"/>
      <point x="785" y="702" type="line" smooth="yes"/>
      <point x="801" y="785"/>
      <point x="758" y="877"/>
      <point x="681" y="877" type="qcurve" smooth="yes"/>
      <point x="583" y="877"/>
      <point x="336" y="704"/>
      <point x="212" y="564" type="qcurve"/>
      <point x="241" y="707" type="line"/>
      <point x="328" y="821"/>
      <point x="623" y="1021"/>
      <point x="741" y="1021" type="qcurve" smooth="yes"/>
      <point x="850" y="1021"/>
      <point x="983" y="878"/>
      <point x="955" y="742" type="qcurve" smooth="yes"/>
      <point x="830" y="134" type="line"/>
      <point x="966" y="134" type="line"/>
      <point x="966" y="46" type="line"/>
    </contour>
  </outline>
</glyph>
<glyph name="k" format="2">
  <advance width="1097"/>
  <unicode hex="006B"/>
  <anchor x="459" y="0" name="bottom"/>
  <anchor x="589" y="1534" name="top"/>
  <outline>
    <contour>
      <point x="535" y="466" type="line"/>
      <point x="130" y="163" type="line"/>
      <point x="153" y="281" type="line"/>
      <point x="728" y="726" type="line"/>
      <point x="728" y="803"/>
      <point x="649" y="888"/>
      <point x="596" y="888" type="qcurve" smooth="yes"/>
      <point x="518" y="888"/>
      <point x="357" y="735"/>
      <point x="306" y="644" type="qcurve"/>
      <point x="295" y="588" type="line"/>
      <point x="210" y="87" type="line"/>
      <point x="241" y="4" type="line"/>
      <point x="67" y="-23" type="line"/>
      <point x="25" y="56" type="line"/>
      <point x="128" y="527" type="line"/>
      <point x="285" y="1408" type="line"/>
      <point x="181" y="1500" type="line"/>
      <point x="209" y="1572" type="line"/>
      <point x="390" y="1606" type="line"/>
      <point x="477" y="1536" type="line"/>
      <point x="335" y="798" type="line"/>
      <point x="395" y="890"/>
      <point x="564" y="1016"/>
      <point x="653" y="1016" type="qcurve" smooth="yes"/>
      <point x="748" y="1016"/>
      <point x="862" y="898"/>
      <point x="872" y="814" type="qcurve" smooth="yes"/>
      <point x="883" y="725" type="line"/>
      <point x="872" y="703" type="line"/>
    </contour>
    <contour>
      <point x="576" y="547" type="line"/>
      <point x="828" y="133" type="line"/>
      <point x="952" y="133" type="line"/>
      <point x="952" y="45" type="line"/>
      <point x="737" y="-6" type="line" smooth="yes"/>
      <point x="722" y="-10"/>
      <point x="700" y="12"/>
      <point x="642" y="115" type="qcurve" smooth="yes"/>
      <point x="451" y="455" type="line"/>
    </contour>
  </outline>
</glyph>
<glyph name="l" format="2">
  <advance width="726"/>
  <unicode hex="006C"/>
  <anchor x="211" y="0" name="bottom"/>
  <anchor x="246" y="770" name="center"/>
  <anchor x="446" y="1534" name="top"/>
  <anchor x="502" y="1000" name="topright"/>
  <anchor x="717" y="742" name="centerright"/>
  <anchor x="577" y="0" name="liga"/>
  <outline>
    <contour>
      <point x="75" y="-14" type="line"/>
      <point x="28" y="86" type="line"/>
      <point x="137" y="606" type="line"/>
      <point x="285" y="1408" type="line"/>
      <point x="161" y="1500" type="line"/>
      <point x="189" y="1572" type="line"/>
      <point x="390" y="1606" type="line"/>
      <point x="477" y="1536" type="line"/>
      <point x="295" y="588" type="line"/>
      <point x="212" y="134" type="line"/>
      <point x="408" y="154" type="line"/>
      <point x="408" y="66" type="line"/>
    </contour>
  </outline>
</glyph>
<glyph name="m" format="2">
  <advance width="1907"/>
  <unicode hex="006D"/>
  <anchor x="975" y="0" name="bottom"/>
  <anchor x="975" y="1000" name="top"/>
  <anchor x="1589" y="134" name="cy_descender"/>
  <outline>
    <contour>
      <point x="93" y="-23" type="line"/>
      <point x="51" y="56" type="line"/>
      <point x="154" y="527" type="line"/>
      <point x="206" y="822" type="line"/>
      <point x="64" y="818" type="line"/>
      <point x="66" y="915" type="line"/>
      <point x="285" y="1001" type="line"/>
      <point x="331" y="1001" type="line"/>
      <point x="364" y="736" type="line"/>
      <point x="331" y="588" type="line"/>
      <point x="226" y="87" type="line"/>
      <point x="257" y="4" type="line"/>
    </contour>
    <contour>
      <point x="688" y="-10" type="line"/>
      <point x="662" y="65" type="line"/>
      <point x="785" y="702" type="line" smooth="yes"/>
      <point x="801" y="785"/>
      <point x="764" y="877"/>
      <point x="687" y="877" type="qcurve" smooth="yes"/>
      <point x="589" y="877"/>
      <point x="361" y="700"/>
      <point x="245" y="563" type="qcurve"/>
      <point x="274" y="702" type="line"/>
      <point x="348" y="819"/>
      <point x="629" y="1021"/>
      <point x="747" y="1021" type="qcurve" smooth="yes"/>
      <point x="856" y="1021"/>
      <point x="986" y="877"/>
      <point x="955" y="742" type="qcurve" smooth="yes"/>
      <point x="832" y="119" type="line"/>
      <point x="878" y="20" type="line"/>
    </contour>
    <contour>
      <point x="1293" y="-25" type="line"/>
      <point x="1252" y="64" type="line"/>
      <point x="1378" y="702" type="line" smooth="yes"/>
      <point x="1394" y="785"/>
      <point x="1357" y="877"/>
      <point x="1280" y="877" type="qcurve" smooth="yes"/>
      <point x="1182" y="877"/>
      <point x="954" y="700"/>
      <point x="842" y="564" type="qcurve"/>
      <point x="865" y="710" type="line"/>
      <point x="941" y="819"/>
      <point x="1222" y="1021"/>
      <point x="1340" y="1021" type="qcurve" smooth="yes"/>
      <point x="1449" y="1021"/>
      <point x="1578" y="877"/>
      <point x="1548" y="742" type="qcurve" smooth="yes"/>
      <point x="1423" y="134" type="line"/>
      <point x="1559" y="134" type="line"/>
      <point x="1559" y="46" type="line"/>
    </contour>
  </outline>
</glyph>
<glyph name="n" format="2">
  <advance width="1340"/>
  <unicode hex="006E"/>
  <anchor x="539" y="0" name="bottom"/>
  <anchor x="619" y="1000" name="top"/>
  <anchor x="1190" y="0" name="liga"/>
  <outline>
    <contour>
      <point x="93" y="-23" type="line"/>
      <point x="51" y="56" type="line"/>
      <point x="154" y="527" type="line"/>
      <point x="206" y="822" type="line"/>
      <point x="64" y="818" type="line"/>
      <point x="66" y="915" type="line"/>
      <point x="285" y="1000" type="line"/>
      <point x="331" y="1000" type="line"/>
      <point x="364" y="736" type="line"/>
      <point x="331" y="588" type="line"/>
      <point x="226" y="83" type="line"/>
      <point x="257" y="0" type="line"/>
    </contour>
    <contour>
      <point x="729" y="-14" type="line"/>
      <point x="688" y="75" type="line"/>
      <point x="811" y="702" type="line" smooth="yes"/>
      <point x="827" y="785"/>
      <point x="784" y="877"/>
      <point x="707" y="877" type="qcurve" smooth="yes"/>
      <point x="609" y="877"/>
      <point x="361" y="700"/>
      <point x="248" y="569" type="qcurve"/>
      <point x="273" y="704" type="line"/>
      <point x="348" y="819"/>
      <point x="649" y="1021"/>
      <point x="767" y="1021" type="qcurve" smooth="yes"/>
      <point x="876" y="1021"/>
      <point x="1009" y="878"/>
      <point x="981" y="742" type="qcurve" smooth="yes"/>
      <point x="856" y="134" type="line"/>
      <point x="992" y="134" type="line"/>
      <point x="992" y="46" type="line"/>
    </contour>
  </outline>
</glyph>
<glyph name="o" format="2">
  <advance width="1202"/>
  <unicode hex="006F"/>
  <anchor x="381" y="0" name="bottom"/>
  <anchor x="484" y="500" name="center"/>
  <anchor x="537" y="0" name="ogonek"/>
  <anchor x="607" y="1000" name="top"/>
  <anchor x="686" y="1000" name="topright"/>
  <anchor x="607" y="1000" name="GRKtop"/>
  <anchor x="106" y="498" name="yu_dash"/>
  <outline>
    <contour>
      <point x="34" y="532" type="qcurve" smooth="yes"/>
      <point x="80" y="746"/>
      <point x="391" y="1030"/>
      <point x="592" y="1016" type="qcurve" smooth="yes"/>
      <point x="793" y="1002"/>
      <point x="984" y="703"/>
      <point x="935" y="475" type="qcurve" smooth="yes"/>
      <point x="890" y="261"/>
      <point x="579" y="-30"/>
      <point x="377" y="-16" type="qcurve" smooth="yes"/>
      <point x="176" y="-2"/>
      <point x="-15" y="301"/>
    </contour>
    <contour>
      <point x="202" y="537" type="qcurve" smooth="yes"/>
      <point x="165" y="359"/>
      <point x="262" y="103"/>
      <point x="393" y="93" type="qcurve" smooth="yes"/>
      <point x="534" y="84"/>
      <point x="726" y="301"/>
      <point x="765" y="488" type="qcurve" smooth="yes"/>
      <point x="802" y="660"/>
      <point x="698" y="892"/>
      <point x="567" y="901" type="qcurve" smooth="yes"/>
      <point x="425" y="911"/>
      <point x="238" y="715"/>
    </contour>
  </outline>
</glyph>
<glyph name="p" format="2">
  <advance width="1136"/>
  <unicode hex="0070"/>
  <anchor x="618" y="0" name="bottom"/>
  <anchor x="618" y="1000" name="top"/>
  <outline>
    <contour>
      <point x="-40" y="-392" type="line"/>
      <point x="131" y="451" type="line"/>
      <point x="193" y="773" type="line"/>
      <point x="159" y="970" type="line"/>
      <point x="277" y="1026" type="line"/>
      <point x="320" y="1026" type="line"/>
      <point x="345" y="830" type="line"/>
      <point x="432" y="901"/>
      <point x="648" y="1006"/>
      <point x="730" y="1006" type="qcurve" smooth="yes"/>
      <point x="847" y="1006"/>
      <point x="951" y="877"/>
      <point x="951" y="768" type="qcurve" smooth="yes"/>
      <point x="951" y="427"/>
      <point x="514" y="30"/>
      <point x="304" y="30" type="qcurve" smooth="yes"/>
      <point x="273" y="30"/>
      <point x="221" y="41"/>
      <point x="200" y="51" type="qcurve"/>
      <point x="131" y="-316" type="line"/>
      <point x="256" y="-356" type="line"/>
      <point x="228" y="-428" type="line"/>
      <point x="47" y="-462" type="line"/>
    </contour>
    <contour>
      <point x="240" y="269" type="line"/>
      <point x="229" y="208"/>
      <point x="286" y="169"/>
      <point x="335" y="169" type="qcurve" smooth="yes"/>
      <point x="534" y="169"/>
      <point x="782" y="477"/>
      <point x="782" y="716" type="qcurve" smooth="yes"/>
      <point x="782" y="791"/>
      <point x="721" y="858"/>
      <point x="652" y="858" type="qcurve" smooth="yes"/>
      <point x="576" y="858"/>
      <point x="392" y="756"/>
      <point x="319" y="691" type="qcurve"/>
      <point x="274" y="448" type="line"/>
    </contour>
  </outline>
</glyph>
<glyph name="r" format="2">
  <advance width="962"/>
  <unicode hex="0072"/>
  <anchor x="300" y="0" name="bottom"/>
  <anchor x="504" y="1000" name="top"/>
  <outline>
    <contour>
      <point x="98" y="-14" type="line"/>
      <point x="57" y="75" type="line"/>
      <point x="162" y="527" type="line"/>
      <point x="200" y="822" type="line"/>
      <point x="58" y="818" type="line"/>
      <point x="60" y="915" type="line"/>
      <point x="269" y="1001" type="line"/>
      <point x="325" y="1001" type="line"/>
      <point x="342" y="807" type="line"/>
      <point x="357" y="741" type="line"/>
      <point x="241" y="137" type="line"/>
      <point x="372" y="106" type="line"/>
      <point x="372" y="18" type="line"/>
    </contour>
    <contour>
      <point x="649" y="648" type="line"/>
      <point x="637" y="865" type="line"/>
      <point x="539" y="865"/>
      <point x="361" y="737"/>
      <point x="251" y="568" type="qcurve"/>
      <point x="264" y="681" type="line"/>
      <point x="357" y="847"/>
      <point x="579" y="1013"/>
      <point x="690" y="1013" type="qcurve" smooth="yes"/>
      <point x="745" y="1013"/>
      <point x="800" y="980"/>
      <point x="800" y="937" type="qcurve" smooth="yes"/>
      <point x="800" y="853"/>
      <point x="728" y="648"/>
      <point x="672" y="648" type="qcurve" smooth="yes"/>
    </contour>
  </outline>
</glyph>
<glyph name="s" format="2">
  <advance width="991"/>
  <unicode hex="0073"/>
  <anchor x="290" y="0" name="bottom"/>
  <anchor x="454" y="1000" name="top"/>
  <outline>
    <contour>
      <point x="-17" y="210" type="qcurve" smooth="yes"/>
      <point x="-17" y="290"/>
      <point x="68" y="380"/>
      <point x="125" y="380" type="qcurve" smooth="yes"/>
      <point x="151" y="380" type="line"/>
      <point x="151" y="195" type="line" smooth="yes"/>
      <point x="151" y="148"/>
      <point x="222" y="98"/>
      <point x="303" y="98" type="qcurve" smooth="yes"/>
      <point x="399" y="98"/>
      <point x="526" y="177"/>
      <point x="526" y="251" type="qcurve" smooth="yes"/>
      <point x="526" y="316"/>
      <point x="427" y="405"/>
      <point x="325" y="472" type="qcurve" smooth="yes"/>
      <point x="218" y="542"/>
      <point x="103" y="669"/>
      <point x="104" y="756" type="qcurve" smooth="yes"/>
      <point x="105" y="861"/>
      <point x="313" y="1018"/>
      <point x="475" y="1018" type="qcurve" smooth="yes"/>
      <point x="594" y="1018"/>
      <point x="720" y="907"/>
      <point x="720" y="831" type="qcurve" smooth="yes"/>
      <point x="720" y="767"/>
      <point x="647" y="677"/>
      <point x="597" y="677" type="qcurve" smooth="yes"/>
      <point x="570" y="677" type="line"/>
      <point x="570" y="812" type="line" smooth="yes"/>
      <point x="570" y="839"/>
      <point x="509" y="901"/>
      <point x="437" y="901" type="qcurve" smooth="yes"/>
      <point x="362" y="901"/>
      <point x="249" y="842"/>
      <point x="249" y="788" type="qcurve" smooth="yes"/>
      <point x="249" y="736"/>
      <point x="338" y="662"/>
      <point x="428" y="603" type="qcurve" smooth="yes"/>
      <point x="535" y="533"/>
      <point x="673" y="399"/>
      <point x="673" y="287" type="qcurve"/>
      <point x="675" y="159"/>
      <point x="458" y="-15"/>
      <point x="286" y="-15" type="qcurve" smooth="yes"/>
      <point x="137" y="-15"/>
      <point x="-17" y="127"/>
    </contour>
  </outline>
</glyph>
<glyph name="t" format="2">
  <advance width="717"/>
  <unicode hex="0074"/>
  <anchor x="162" y="0" name="bottom"/>
  <anchor x="275" y="622" name="center"/>
  <anchor x="335" y="1179" name="top"/>
  <anchor x="613" y="920" name="topright"/>
  <outline>
    <contour>
      <point x="118" y="-15" type="line"/>
      <point x="44" y="117" type="line"/>
      <point x="141" y="512" type="line"/>
      <point x="198" y="830" type="line"/>
      <point x="37" y="842" type="line"/>
      <point x="52" y="916" type="line"/>
      <point x="154" y="952"/>
      <point x="290" y="1145"/>
      <point x="318" y="1237" type="qcurve"/>
      <point x="378" y="1237" type="line"/>
      <point x="404" y="1197" type="line"/>
      <point x="289" y="524" type="line"/>
      <point x="227" y="134" type="line"/>
      <point x="413" y="154" type="line"/>
      <point x="413" y="66" type="line"/>
    </contour>
    <contour>
      <point x="242" y="849" type="line"/>
      <point x="287" y="980" type="line"/>
      <point x="592" y="980" type="line"/>
      <point x="592" y="875" type="line"/>
    </contour>
  </outline>
</glyph>
<glyph name="u" format="2">
  <advance width="1338"/>
  <unicode hex="0075"/>
  <anchor x="415" y="0" name="bottom"/>
  <anchor x="882" y="20" name="ogonek"/>
  <anchor x="583" y="1000" name="top"/>
  <anchor x="926" y="1000" name="topright"/>
  <anchor x="1029" y="134" name="cy_descender"/>
  <outline>
    <contour>
      <point x="742" y="-15" type="line"/>
      <point x="700" y="76" type="line"/>
      <point x="711" y="278" type="line"/>
      <point x="826" y="911" type="line"/>
      <point x="795" y="994" type="line"/>
      <point x="959" y="1021" type="line"/>
      <point x="1001" y="942" type="line"/>
      <point x="884" y="362" type="line"/>
      <point x="858" y="134" type="line"/>
      <point x="994" y="134" type="line"/>
      <point x="996" y="47" type="line"/>
    </contour>
    <contour>
      <point x="77" y="272" type="qcurve" smooth="yes"/>
      <point x="188" y="822" type="line"/>
      <point x="46" y="819" type="line"/>
      <point x="48" y="915" type="line"/>
      <point x="267" y="1002" type="line"/>
      <point x="312" y="1002" type="line"/>
      <point x="354" y="923" type="line"/>
      <point x="247" y="312" type="line" smooth="yes"/>
      <point x="232" y="229"/>
      <point x="274" y="137"/>
      <point x="351" y="137" type="qcurve" smooth="yes"/>
      <point x="449" y="137"/>
      <point x="681" y="298"/>
      <point x="825" y="476" type="qcurve"/>
      <point x="800" y="332" type="line"/>
      <point x="694" y="179"/>
      <point x="409" y="-7"/>
      <point x="291" y="-7" type="qcurve" smooth="yes"/>
      <point x="182" y="-7"/>
      <point x="49" y="135"/>
    </contour>
  </outline>
</glyph>
<glyph name="v" format="2">
  <advance width="1087"/>
  <unicode hex="0076"/>
  <anchor x="523" y="0" name="bottom"/>
  <anchor x="523" y="1000" name="top"/>
  <outline>
    <contour>
      <point x="247" y="-8" type="line"/>
      <point x="181" y="500" type="line"/>
      <point x="140" y="821" type="line"/>
      <point x="-2" y="818" type="line"/>
      <point x="0" y="915" type="line"/>
      <point x="219" y="1001" type="line"/>
      <point x="287" y="1001" type="line"/>
      <point x="337" y="556" type="line"/>
      <point x="370" y="283" type="line"/>
      <point x="381" y="174" type="line"/>
      <point x="391" y="174" type="line"/>
      <point x="473" y="283" type="line"/>
      <point x="605" y="454"/>
      <point x="713" y="643"/>
      <point x="713" y="712" type="qcurve" smooth="yes"/>
      <point x="713" y="792"/>
      <point x="618" y="896"/>
      <point x="618" y="940" type="qcurve" smooth="yes"/>
      <point x="618" y="983"/>
      <point x="686" y="1041"/>
      <point x="733" y="1041" type="qcurve" smooth="yes"/>
      <point x="792" y="1041"/>
      <point x="876" y="944"/>
      <point x="876" y="837" type="qcurve" smooth="yes"/>
      <point x="876" y="699"/>
      <point x="659" y="340"/>
      <point x="369" y="-8" type="qcurve"/>
    </contour>
  </outline>
</glyph>
<glyph name="z" format="2">
  <advance width="1046"/>
  <unicode hex="007A"/>
  <anchor x="463" y="0" name="bottom"/>
  <anchor x="483" y="1000" name="top"/>
  <anchor x="20" y="0" name="_liga"/>
  <outline>
    <contour>
      <point x="10" y="-10" type="line"/>
      <point x="-65" y="73" type="line"/>
      <point x="37" y="192"/>
      <point x="272" y="466"/>
      <point x="344" y="547" type="qcurve" smooth="yes"/>
      <point x="397" y="608"/>
      <point x="562" y="769"/>
      <point x="642" y="850" type="qcurve"/>
      <point x="221" y="846" type="line"/>
      <point x="173" y="720" type="line"/>
      <point x="65" y="720" type="line"/>
      <point x="122" y="973" type="line"/>
      <point x="184" y="992" type="line"/>
      <point x="791" y="992" type="line"/>
      <point x="819" y="875" type="line"/>
      <point x="733" y="779"/>
      <point x="527" y="554"/>
      <point x="473" y="491" type="qcurve" smooth="yes"/>
      <point x="419" y="429"/>
      <point x="270" y="274"/>
      <point x="200" y="210" type="qcurve"/>
      <point x="606" y="133" type="line"/>
      <point x="698" y="260" type="line"/>
      <point x="787" y="235" type="line"/>
      <point x="706" y="-10" type="line"/>
      <point x="669" y="-29" type="line"/>
      <point x="114" y="83" type="line"/>
    </contour>
  </outline>
</glyph>
<glyph name="braceleft" format="2">
  <advance width="915"/>
  <unicode hex="007B"/>
  <outline>
    <contour>
      <point x="88" y="491" type="line"/>
      <point x="109" y="599" type="line"/>
      <point x="242" y="599" type="line" smooth="yes"/>
      <point x="299" y="599"/>
      <point x="359" y="660"/>
      <point x="370" y="716" type="qcurve" smooth="yes"/>
      <point x="393" y="834"/>
      <point x="328" y="1066"/>
      <point x="351" y="1184" type="qcurve" smooth="yes"/>
      <point x="382" y="1343"/>
      <point x="586" y="1510"/>
      <point x="742" y="1510" type="qcurve" smooth="yes"/>
      <point x="813" y="1510"/>
      <point x="873" y="1503"/>
      <point x="910" y="1500" type="qcurve"/>
      <point x="887" y="1386" type="line"/>
      <point x="836" y="1388"/>
      <point x="793" y="1388"/>
      <point x="744" y="1388" type="qcurve" smooth="yes"/>
      <point x="662" y="1388"/>
      <point x="553" y="1294"/>
      <point x="533" y="1196" type="qcurve" smooth="yes"/>
      <point x="514" y="1094"/>
      <point x="559" y="883"/>
      <point x="541" y="792" type="qcurve" smooth="yes"/>
      <point x="522" y="697"/>
      <point x="433" y="571"/>
      <point x="378" y="550" type="qcurve"/>
      <point x="434" y="516"/>
      <point x="462" y="384"/>
      <point x="448" y="314" type="qcurve" smooth="yes"/>
      <point x="430" y="223"/>
      <point x="256" y="-78"/>
      <point x="236" y="-180" type="qcurve" smooth="yes"/>
      <point x="217" y="-278"/>
      <point x="294" y="-374"/>
      <point x="376" y="-374" type="qcurve" smooth="yes"/>
      <point x="425" y="-374"/>
      <point x="488" y="-374"/>
      <point x="541" y="-372" type="qcurve"/>
      <point x="519" y="-484" type="line"/>
      <point x="481" y="-487"/>
      <point x="398" y="-495"/>
      <point x="327" y="-495" type="qcurve" smooth="yes"/>
      <point x="171" y="-495"/>
      <point x="27" y="-327"/>
      <point x="58" y="-168" type="qcurve" smooth="yes"/>
      <point x="81" y="-50"/>
      <point x="278" y="246"/>
      <point x="301" y="364" type="qcurve"/>
      <point x="323" y="481" type="line"/>
    </contour>
  </outline>
</glyph>
<glyph name="bar" format="2">
  <advance width="826"/>
  <unicode hex="007C"/>
  <outline>
    <contour>
      <point x="62" y="-540" type="line"/>
      <point x="168" y="-58" type="line"/>
      <point x="242" y="250" type="line"/>
      <point x="352" y="830" type="line"/>
      <point x="400" y="1138" type="line"/>
      <point x="455" y="1480" type="line"/>
      <point x="648" y="1550" type="line"/>
      <point x="556" y="1138" type="line"/>
      <point x="482" y="830" type="line"/>
      <point x="372" y="250" type="line"/>
      <point x="324" y="-58" type="line"/>
      <point x="256" y="-470" type="line"/>
    </contour>
  </outline>
</glyph>
<glyph name="braceright" format="2">
  <advance width="915"/>
  <unicode hex="007D"/>
  <outline>
    <contour>
      <point x="-102" y="-484" type="qcurve"/>
      <point x="-80" y="-372" type="line"/>
      <point x="-29" y="-374"/>
      <point x="14" y="-374"/>
      <point x="63" y="-374" type="qcurve" smooth="yes"/>
      <point x="145" y="-374"/>
      <point x="260" y="-278"/>
      <point x="279" y="-180" type="qcurve" smooth="yes"/>
      <point x="299" y="-78"/>
      <point x="261" y="223"/>
      <point x="279" y="314" type="qcurve" smooth="yes"/>
      <point x="293" y="384"/>
      <point x="371" y="516"/>
      <point x="441" y="550" type="qcurve"/>
      <point x="394" y="571"/>
      <point x="353" y="697"/>
      <point x="372" y="792" type="qcurve" smooth="yes"/>
      <point x="390" y="883"/>
      <point x="537" y="1094"/>
      <point x="556" y="1196" type="qcurve" smooth="yes"/>
      <point x="576" y="1294"/>
      <point x="503" y="1388"/>
      <point x="421" y="1388" type="qcurve" smooth="yes"/>
      <point x="372" y="1388"/>
      <point x="309" y="1388"/>
      <point x="256" y="1386" type="qcurve"/>
      <point x="279" y="1500" type="line"/>
      <point x="316" y="1503"/>
      <point x="400" y="1510"/>
      <point x="471" y="1510" type="qcurve" smooth="yes"/>
      <point x="627" y="1510"/>
      <point x="765" y="1343"/>
      <point x="734" y="1184" type="qcurve" smooth="yes"/>
      <point x="711" y="1066"/>
      <point x="536" y="834"/>
      <point x="513" y="716" type="qcurve"/>
      <point x="510" y="598" type="line"/>
      <point x="724" y="592" type="line"/>
      <point x="703" y="484" type="line"/>
      <point x="558" y="481" type="line" smooth="yes"/>
      <point x="489" y="480"/>
      <point x="446" y="402"/>
      <point x="446" y="364" type="qcurve" smooth="yes"/>
      <point x="446" y="288"/>
      <point x="484" y="-50"/>
      <point x="461" y="-168" type="qcurve" smooth="yes"/>
      <point x="430" y="-327"/>
      <point x="222" y="-495"/>
      <point x="66" y="-495" type="qcurve" smooth="yes"/>
      <point x="-5" y="-495"/>
      <point x="-66" y="-487"/>
    </contour>
  </outline>
</glyph>
<glyph name="brokenbar" format="2">
  <advance width="826"/>
  <unicode hex="00A6"/>
  <outline>
    <contour>
      <point x="378" y="725" type="line"/>
      <point x="432" y="1012" type="line"/>
      <point x="446" y="1138" type="line"/>
      <point x="501" y="1480" type="line"/>
      <point x="694" y="1550" type="line"/>
      <point x="602" y="1138" type="line"/>
      <point x="562" y="1012" type="line"/>
      <point x="508" y="725" type="line"/>
    </contour>
    <contour>
      <point x="108" y="-540" type="line"/>
      <point x="214" y="-58" type="line"/>
      <point x="260" y="100" type="line"/>
      <point x="308" y="387" type="line"/>
      <point x="443" y="387" type="line"/>
      <point x="390" y="100" type="line"/>
      <point x="370" y="-58" type="line"/>
      <point x="302" y="-470" type="line"/>
    </contour>
  </outline>
</glyph>
<glyph name="copyright" format="2">
  <advance width="2270"/>
  <unicode hex="00A9"/>
  <outline>
    <contour>
      <point x="702" y="662" type="qcurve" smooth="yes"/>
      <point x="702" y="901"/>
      <point x="963" y="1209"/>
      <point x="1189" y="1209" type="qcurve" smooth="yes"/>
      <point x="1252" y="1209"/>
      <point x="1373" y="1176"/>
      <point x="1403" y="1152" type="qcurve"/>
      <point x="1435" y="1206" type="line"/>
      <point x="1523" y="1177" type="line"/>
      <point x="1539" y="851" type="line"/>
      <point x="1441" y="834" type="line"/>
      <point x="1392" y="1019" type="line"/>
      <point x="1350" y="1053"/>
      <point x="1247" y="1098"/>
      <point x="1190" y="1098" type="qcurve" smooth="yes"/>
      <point x="1051" y="1098"/>
      <point x="882" y="898"/>
      <point x="882" y="704" type="qcurve" smooth="yes"/>
      <point x="882" y="502"/>
      <point x="1082" y="295"/>
      <point x="1213" y="295" type="qcurve" smooth="yes"/>
      <point x="1332" y="295"/>
      <point x="1515" y="398"/>
      <point x="1563" y="455" type="qcurve"/>
      <point x="1623" y="380" type="line"/>
      <point x="1561" y="287"/>
      <point x="1323" y="165"/>
      <point x="1213" y="165" type="qcurve" smooth="yes"/>
      <point x="982" y="165"/>
      <point x="702" y="433"/>
    </contour>
    <contour>
      <point x="254" y="685" type="qcurve" smooth="yes"/>
      <point x="254" y="1061"/>
      <point x="775" y="1570"/>
      <point x="1179" y="1570" type="qcurve" smooth="yes"/>
      <point x="1581" y="1570"/>
      <point x="2100" y="1087"/>
      <point x="2100" y="706" type="qcurve" smooth="yes"/>
      <point x="2100" y="288"/>
      <point x="1588" y="-242"/>
      <point x="1191" y="-242" type="qcurve" smooth="yes"/>
      <point x="782" y="-242"/>
      <point x="254" y="276"/>
    </contour>
    <contour>
      <point x="396" y="682" type="qcurve" smooth="yes"/>
      <point x="396" y="325"/>
      <point x="867" y="-141"/>
      <point x="1208" y="-141" type="qcurve" smooth="yes"/>
      <point x="1539" y="-141"/>
      <point x="1958" y="351"/>
      <point x="1958" y="699" type="qcurve" smooth="yes"/>
      <point x="1958" y="1017"/>
      <point x="1515" y="1469"/>
      <point x="1158" y="1469" type="qcurve" smooth="yes"/>
      <point x="821" y="1469"/>
      <point x="396" y="1008"/>
    </contour>
  </outline>
</glyph>
<glyph name="registered" format="2">
  <advance width="2270"/>
  <unicode hex="00AE"/>
  <outline>
    <contour>
      <point x="254" y="685" type="qcurve" smooth="yes"/>
      <point x="254" y="1061"/>
      <point x="775" y="1570"/>
      <point x="1179" y="1570" type="qcurve" smooth="yes"/>
      <point x="1581" y="1570"/>
      <point x="2100" y="1087"/>
      <point x="2100" y="706" type="qcurve" smooth="yes"/>
      <point x="2100" y="288"/>
      <point x="1588" y="-242"/>
      <point x="1191" y="-242" type="qcurve" smooth="yes"/>
      <point x="782" y="-242"/>
      <point x="254" y="276"/>
    </contour>
    <contour>
      <point x="396" y="682" type="qcurve" smooth="yes"/>
      <point x="396" y="325"/>
      <point x="867" y="-141"/>
      <point x="1208" y="-141" type="qcurve" smooth="yes"/>
      <point x="1539" y="-141"/>
      <point x="1958" y="351"/>
      <point x="1958" y="699" type="qcurve" smooth="yes"/>
      <point x="1958" y="1017"/>
      <point x="1515" y="1469"/>
      <point x="1158" y="1469" type="qcurve" smooth="yes"/>
      <point x="821" y="1469"/>
      <point x="396" y="1008"/>
    </contour>
    <contour>
      <point x="748" y="176" type="line"/>
      <point x="738" y="266" type="line"/>
      <point x="855" y="290" type="line"/>
      <point x="866" y="723" type="line"/>
      <point x="855" y="1088" type="line"/>
      <point x="728" y="1111" type="line"/>
      <point x="728" y="1209" type="line"/>
      <point x="1201" y="1209" type="line" smooth="yes"/>
      <point x="1359" y="1209"/>
      <point x="1512" y="1082"/>
      <point x="1512" y="968" type="qcurve" smooth="yes"/>
      <point x="1512" y="841"/>
      <point x="1325" y="664"/>
      <point x="1199" y="664" type="qcurve" smooth="yes"/>
      <point x="1148" y="664"/>
      <point x="962" y="673"/>
      <point x="938" y="673" type="qcurve"/>
      <point x="938" y="758" type="line"/>
      <point x="1141" y="758" type="line" smooth="yes"/>
      <point x="1260" y="758"/>
      <point x="1344" y="868"/>
      <point x="1344" y="959" type="qcurve" smooth="yes"/>
      <point x="1344" y="1039"/>
      <point x="1252" y="1108"/>
      <point x="1149" y="1108" type="qcurve" smooth="yes"/>
      <point x="1042" y="1108" type="line"/>
      <point x="1021" y="1095" type="line"/>
      <point x="1008" y="723" type="line"/>
      <point x="1019" y="290" type="line"/>
      <point x="1151" y="266" type="line"/>
      <point x="1151" y="176" type="line"/>
    </contour>
    <contour>
      <point x="1099" y="714" type="line"/>
      <point x="1264" y="720" type="line"/>
      <point x="1503" y="393" type="line" smooth="yes"/>
      <point x="1575" y="295"/>
      <point x="1669" y="266"/>
      <point x="1711" y="266" type="qcurve"/>
      <point x="1711" y="176" type="line"/>
      <point x="1520" y="176" type="line"/>
      <point x="1478" y="190" type="line"/>
    </contour>
  </outline>
</glyph>
<glyph name="micro" format="2">
  <advance width="1393"/>
  <unicode hex="00B5"/>
  <outline>
    <contour>
      <point x="34" y="-317" type="line"/>
      <point x="70" y="-295" type="line"/>
      <point x="98" y="-176"/>
      <point x="162" y="96"/>
      <point x="177" y="181" type="qcurve" smooth="yes"/>
      <point x="294" y="822" type="line"/>
      <point x="152" y="819" type="line"/>
      <point x="154" y="915" type="line"/>
      <point x="373" y="1002" type="line"/>
      <point x="418" y="1002" type="line"/>
      <point x="460" y="923" type="line"/>
      <point x="353" y="312" type="line" smooth="yes"/>
      <point x="338" y="229"/>
      <point x="390" y="167"/>
      <point x="467" y="167" type="qcurve" smooth="yes"/>
      <point x="560" y="167"/>
      <point x="770" y="285"/>
      <point x="831" y="352" type="qcurve"/>
      <point x="932" y="911" type="line"/>
      <point x="901" y="994" type="line"/>
      <point x="1065" y="1021" type="line"/>
      <point x="1107" y="942" type="line"/>
      <point x="990" y="362" type="line"/>
      <point x="964" y="134" type="line"/>
      <point x="1100" y="134" type="line"/>
      <point x="1102" y="47" type="line"/>
      <point x="848" y="-15" type="line"/>
      <point x="806" y="76" type="line"/>
      <point x="814" y="215" type="line"/>
      <point x="737" y="136"/>
      <point x="506" y="23"/>
      <point x="407" y="23" type="qcurve" smooth="yes"/>
      <point x="374" y="23"/>
      <point x="324" y="36"/>
      <point x="299" y="48" type="qcurve"/>
      <point x="242" y="-274" type="line"/>
      <point x="388" y="-282" type="line"/>
      <point x="380" y="-371" type="line"/>
      <point x="57" y="-399" type="line"/>
    </contour>
  </outline>
</glyph>
<glyph name="paragraph" format="2">
  <advance width="1370"/>
  <unicode hex="00B6"/>
  <outline>
    <contour>
      <point x="807" y="96" type="qcurve" smooth="yes"/>
      <point x="932" y="787" type="line"/>
      <point x="892" y="781"/>
      <point x="705" y="773"/>
      <point x="646" y="773" type="qcurve" smooth="yes"/>
      <point x="453" y="773"/>
      <point x="257" y="989"/>
      <point x="287" y="1155" type="qcurve" smooth="yes"/>
      <point x="317" y="1326"/>
      <point x="569" y="1500"/>
      <point x="761" y="1500" type="qcurve" smooth="yes"/>
      <point x="1388" y="1500" type="line"/>
      <point x="1368" y="1386" type="line"/>
      <point x="1161" y="1352" type="line"/>
      <point x="1054" y="754" type="line"/>
      <point x="940" y="198" type="line"/>
      <point x="1006" y="119"/>
      <point x="981" y="-30"/>
      <point x="897" y="-30" type="qcurve" smooth="yes"/>
      <point x="851" y="-30"/>
      <point x="798" y="44"/>
    </contour>
    <contour>
      <point x="544" y="220" type="qcurve" smooth="yes"/>
      <point x="662" y="849" type="line"/>
      <point x="796" y="849" type="line"/>
      <point x="687" y="263" type="line" smooth="yes"/>
      <point x="636" y="-10"/>
      <point x="423" y="-283"/>
      <point x="252" y="-283" type="qcurve" smooth="yes"/>
      <point x="155" y="-283"/>
      <point x="55" y="-184"/>
      <point x="55" y="-117" type="qcurve" smooth="yes"/>
      <point x="55" y="-57"/>
      <point x="133" y="29"/>
      <point x="178" y="40" type="qcurve"/>
      <point x="232" y="-4" type="line"/>
      <point x="232" y="-54" type="line"/>
      <point x="208" y="-54"/>
      <point x="181" y="-77"/>
      <point x="181" y="-99" type="qcurve" smooth="yes"/>
      <point x="181" y="-121"/>
      <point x="219" y="-159"/>
      <point x="265" y="-159" type="qcurve" smooth="yes"/>
      <point x="369" y="-159"/>
      <point x="506" y="17"/>
    </contour>
  </outline>
</glyph>
<glyph name="germandbls" format="2">
  <advance width="1309"/>
  <unicode hex="00DF"/>
  <outline>
    <contour>
      <point x="76" y="39" type="qcurve" smooth="yes"/>
      <point x="261" y="1177" type="line" smooth="yes"/>
      <point x="297" y="1397"/>
      <point x="553" y="1567"/>
      <point x="682" y="1567" type="qcurve" smooth="yes"/>
      <point x="829" y="1567"/>
      <point x="1020" y="1422"/>
      <point x="1020" y="1283" type="qcurve" smooth="yes"/>
      <point x="1020" y="1146"/>
      <point x="871" y="969"/>
      <point x="793" y="937" type="qcurve" smooth="yes"/>
      <point x="721" y="908"/>
      <point x="618" y="852"/>
      <point x="618" y="798" type="qcurve" smooth="yes"/>
      <point x="618" y="746"/>
      <point x="713" y="666"/>
      <point x="813" y="609" type="qcurve" smooth="yes"/>
      <point x="910" y="554"/>
      <point x="1059" y="407"/>
      <point x="1060" y="294" type="qcurve" smooth="yes"/>
      <point x="1061" y="159"/>
      <point x="844" y="-15"/>
      <point x="672" y="-15" type="qcurve" smooth="yes"/>
      <point x="523" y="-15"/>
      <point x="369" y="127"/>
      <point x="369" y="210" type="qcurve" smooth="yes"/>
      <point x="369" y="290"/>
      <point x="454" y="380"/>
      <point x="511" y="380" type="qcurve" smooth="yes"/>
      <point x="537" y="380" type="line"/>
      <point x="537" y="195" type="line" smooth="yes"/>
      <point x="537" y="148"/>
      <point x="608" y="98"/>
      <point x="689" y="98" type="qcurve" smooth="yes"/>
      <point x="785" y="98"/>
      <point x="912" y="187"/>
      <point x="912" y="261" type="qcurve" smooth="yes"/>
      <point x="912" y="327"/>
      <point x="803" y="437"/>
      <point x="711" y="486" type="qcurve" smooth="yes"/>
      <point x="592" y="550"/>
      <point x="482" y="679"/>
      <point x="483" y="766" type="qcurve" smooth="yes"/>
      <point x="484" y="871"/>
      <point x="637" y="980"/>
      <point x="720" y="1016" type="qcurve" smooth="yes"/>
      <point x="794" y="1048"/>
      <point x="871" y="1169"/>
      <point x="871" y="1242" type="qcurve" smooth="yes"/>
      <point x="871" y="1333"/>
      <point x="773" y="1441"/>
      <point x="673" y="1441" type="qcurve" smooth="yes"/>
      <point x="569" y="1441"/>
      <point x="446" y="1304"/>
      <point x="423" y="1162" type="qcurve" smooth="yes"/>
      <point x="244" y="82" type="line" smooth="yes"/>
      <point x="205" y="-152"/>
      <point x="10" y="-449"/>
      <point x="-179" y="-449" type="qcurve"/>
      <point x="-337" y="-399" type="line"/>
      <point x="-337" y="-305" type="line"/>
      <point x="-162" y="-303" type="line"/>
      <point x="-58" y="-303"/>
      <point x="43" y="-164"/>
    </contour>
  </outline>
</glyph>
<glyph name="ae" format="2">
  <advance width="1722"/>
  <unicode hex="00E6"/>
  <anchor x="1008" y="1000" name="top"/>
  <outline>
    <contour>
      <point x="179" y="300" type="qcurve" smooth="yes"/>
      <point x="179" y="225"/>
      <point x="243" y="127"/>
      <point x="312" y="127" type="qcurve" smooth="yes"/>
      <point x="430" y="127"/>
      <point x="632" y="351"/>
      <point x="669" y="491" type="qcurve" smooth="yes"/>
      <point x="747" y="786" type="line"/>
      <point x="744" y="826"/>
      <point x="668" y="852"/>
      <point x="627" y="852" type="qcurve" smooth="yes"/>
      <point x="427" y="852"/>
      <point x="179" y="533"/>
    </contour>
    <contour>
      <point x="14" y="248" type="qcurve" smooth="yes"/>
      <point x="14" y="548"/>
      <point x="448" y="991"/>
      <point x="658" y="991" type="qcurve" smooth="yes"/>
      <point x="676" y="991"/>
      <point x="731" y="978"/>
      <point x="751" y="967" type="qcurve"/>
      <point x="830" y="1020" type="line"/>
      <point x="876" y="1020" type="line"/>
      <point x="907" y="885" type="line"/>
      <point x="973" y="954"/>
      <point x="1140" y="1030"/>
      <point x="1239" y="1030" type="qcurve" smooth="yes"/>
      <point x="1365" y="1030"/>
      <point x="1511" y="909"/>
      <point x="1515" y="849" type="qcurve" smooth="yes"/>
      <point x="1518" y="804"/>
      <point x="1511" y="703"/>
      <point x="1500" y="654" type="qcurve"/>
      <point x="1530" y="645" type="line"/>
      <point x="1495" y="544" type="line"/>
      <point x="1420" y="546"/>
      <point x="1293" y="546"/>
      <point x="1226" y="546" type="qcurve" smooth="yes"/>
      <point x="768" y="544" type="line"/>
      <point x="765" y="638" type="line"/>
      <point x="1313" y="646" type="line"/>
      <point x="1325" y="677"/>
      <point x="1348" y="774"/>
      <point x="1340" y="814" type="qcurve" smooth="yes"/>
      <point x="1332" y="853"/>
      <point x="1273" y="901"/>
      <point x="1216" y="901" type="qcurve" smooth="yes"/>
      <point x="1085" y="901"/>
      <point x="856" y="692"/>
      <point x="819" y="511" type="qcurve" smooth="yes"/>
      <point x="783" y="334"/>
      <point x="890" y="117"/>
      <point x="1027" y="112" type="qcurve" smooth="yes"/>
      <point x="1152" y="107"/>
      <point x="1328" y="203"/>
      <point x="1407" y="305" type="qcurve"/>
      <point x="1447" y="250" type="line"/>
      <point x="1468" y="222" type="line"/>
      <point x="1392" y="117"/>
      <point x="1145" y="-25"/>
      <point x="977" y="-25" type="qcurve" smooth="yes"/>
      <point x="851" y="-25"/>
      <point x="678" y="126"/>
      <point x="663" y="223" type="qcurve"/>
      <point x="564" y="98"/>
      <point x="343" y="-10"/>
      <point x="235" y="-10" type="qcurve" smooth="yes"/>
      <point x="118" y="-10"/>
      <point x="14" y="139"/>
    </contour>
  </outline>
</glyph>
<glyph name="eth" format="2">
  <advance width="1267"/>
  <unicode hex="00F0"/>
  <outline>
    <contour>
      <point x="34" y="532" type="qcurve" smooth="yes"/>
      <point x="80" y="746"/>
      <point x="395" y="1041"/>
      <point x="612" y="1016" type="qcurve" smooth="yes"/>
      <point x="786" y="996"/>
      <point x="915" y="687"/>
      <point x="875" y="475" type="qcurve"/>
      <point x="795" y="488" type="line"/>
      <point x="832" y="660"/>
      <point x="708" y="892"/>
      <point x="577" y="901" type="qcurve" smooth="yes"/>
      <point x="435" y="911"/>
      <point x="237" y="700"/>
      <point x="199" y="525" type="qcurve" smooth="yes"/>
      <point x="163" y="359"/>
      <point x="262" y="103"/>
      <point x="393" y="93" type="qcurve" smooth="yes"/>
      <point x="534" y="84"/>
      <point x="717" y="304"/>
      <point x="768" y="488" type="qcurve" smooth="yes"/>
      <point x="902" y="971"/>
      <point x="854" y="1379"/>
      <point x="748" y="1412" type="qcurve" smooth="yes"/>
      <point x="644" y="1444"/>
      <point x="432" y="1335"/>
      <point x="393" y="1283" type="qcurve"/>
      <point x="347" y="1283" type="line"/>
      <point x="347" y="1400" type="line"/>
      <point x="403" y="1453"/>
      <point x="645" y="1557"/>
      <point x="797" y="1527" type="qcurve" smooth="yes"/>
      <point x="962" y="1494"/>
      <point x="1081" y="1019"/>
      <point x="947" y="545" type="qcurve" smooth="yes"/>
      <point x="868" y="264"/>
      <point x="579" y="-30"/>
      <point x="377" y="-16" type="qcurve" smooth="yes"/>
      <point x="176" y="-2"/>
      <point x="-15" y="301"/>
    </contour>
    <contour>
      <point x="840" y="1410" type="line"/>
      <point x="1072" y="1608" type="line"/>
      <point x="1126" y="1501" type="line"/>
      <point x="889" y="1328" type="line"/>
      <point x="657" y="1138" type="line"/>
      <point x="592" y="1242" type="line"/>
    </contour>
  </outline>
</glyph>
<glyph name="thorn" format="2">
  <advance width="1038"/>
  <unicode hex="00FE"/>
  <outline>
    <contour>
      <point x="-41" y="-392" type="line"/>
      <point x="129" y="512" type="line"/>
      <point x="279" y="1410" type="line"/>
      <point x="175" y="1502" type="line"/>
      <point x="203" y="1574" type="line"/>
      <point x="384" y="1608" type="line"/>
      <point x="471" y="1538" type="line"/>
      <point x="344" y="830" type="line"/>
      <point x="431" y="901"/>
      <point x="647" y="1006"/>
      <point x="729" y="1006" type="qcurve" smooth="yes"/>
      <point x="846" y="1006"/>
      <point x="950" y="877"/>
      <point x="950" y="768" type="qcurve" smooth="yes"/>
      <point x="950" y="427"/>
      <point x="513" y="30"/>
      <point x="303" y="30" type="qcurve" smooth="yes"/>
      <point x="272" y="30"/>
      <point x="220" y="41"/>
      <point x="199" y="51" type="qcurve"/>
      <point x="130" y="-316" type="line"/>
      <point x="255" y="-356" type="line"/>
      <point x="227" y="-428" type="line"/>
      <point x="46" y="-462" type="line"/>
    </contour>
    <contour>
      <point x="239" y="269" type="line"/>
      <point x="228" y="208"/>
      <point x="285" y="169"/>
      <point x="334" y="169" type="qcurve" smooth="yes"/>
      <point x="533" y="169"/>
      <point x="781" y="477"/>
      <point x="781" y="716" type="qcurve" smooth="yes"/>
      <point x="781" y="791"/>
      <point x="720" y="858"/>
      <point x="651" y="858" type="qcurve" smooth="yes"/>
      <point x="575" y="858"/>
      <point x="391" y="756"/>
      <point x="318" y="691" type="qcurve"/>
      <point x="281" y="494" type="line"/>
    </contour>
  </outline>
</glyph>
<glyph name="idotless" format="2">
  <advance width="723"/>
  <unicode hex="0131"/>
  <anchor x="202" y="0" name="bottom"/>
  <anchor x="342" y="1000" name="top"/>
  <anchor x="202" y="0" name="ogonek"/>
  <anchor x="261" y="498" name="yu_dash"/>
  <anchor x="640" y="0" name="liga"/>
  <outline>
    <contour>
      <point x="127" y="-21" type="line"/>
      <point x="86" y="68" type="line"/>
      <point x="184" y="527" type="line"/>
      <point x="241" y="820" type="line"/>
      <point x="70" y="818" type="line"/>
      <point x="72" y="915" type="line"/>
      <point x="320" y="1000" type="line"/>
      <point x="380" y="1000" type="line"/>
      <point x="421" y="888" type="line"/>
      <point x="392" y="789" type="line"/>
      <point x="335" y="502" type="line"/>
      <point x="269" y="140" type="line"/>
      <point x="490" y="164" type="line"/>
      <point x="490" y="76" type="line"/>
    </contour>
  </outline>
</glyph>
<glyph name="kgreenlandic" format="2">
  <advance width="1067"/>
  <unicode hex="0138"/>
  <outline>
    <contour>
      <point x="108" y="56" type="line"/>
      <point x="211" y="527" type="line"/>
      <point x="263" y="820" type="line"/>
      <point x="121" y="816" type="line"/>
      <point x="120" y="915" type="line"/>
      <point x="342" y="1003" type="line"/>
      <point x="387" y="1001" type="line"/>
      <point x="441" y="930" type="line"/>
      <point x="381" y="588" type="line"/>
      <point x="283" y="83" type="line"/>
      <point x="314" y="0" type="line"/>
      <point x="150" y="-23" type="line"/>
    </contour>
    <contour>
      <point x="1034" y="908" type="line"/>
      <point x="913" y="862" type="line"/>
      <point x="610" y="601" type="line"/>
      <point x="911" y="133" type="line"/>
      <point x="1035" y="133" type="line"/>
      <point x="1035" y="45" type="line"/>
      <point x="800" y="-8" type="line" smooth="yes"/>
      <point x="785" y="-11"/>
      <point x="771" y="7"/>
      <point x="725" y="115" type="qcurve"/>
      <point x="482" y="507" type="line"/>
      <point x="258" y="359" type="line"/>
      <point x="276" y="457" type="line"/>
      <point x="789" y="865" type="line"/>
      <point x="794" y="894" type="line"/>
      <point x="682" y="917" type="line"/>
      <point x="693" y="1000" type="line"/>
      <point x="1049" y="1000" type="line"/>
    </contour>
  </outline>
</glyph>
<glyph name="oe" format="2">
  <advance width="1832"/>
  <unicode hex="0153"/>
  <outline>
    <contour>
      <point x="34" y="532" type="qcurve" smooth="yes"/>
      <point x="80" y="746"/>
      <point x="391" y="1030"/>
      <point x="592" y="1016" type="qcurve" smooth="yes"/>
      <point x="708" y="1008"/>
      <point x="877" y="894"/>
      <point x="917" y="803" type="qcurve"/>
      <point x="1001" y="905"/>
      <point x="1227" y="1030"/>
      <point x="1349" y="1030" type="qcurve" smooth="yes"/>
      <point x="1475" y="1030"/>
      <point x="1621" y="909"/>
      <point x="1625" y="849" type="qcurve" smooth="yes"/>
      <point x="1628" y="804"/>
      <point x="1621" y="703"/>
      <point x="1610" y="654" type="qcurve"/>
      <point x="1640" y="645" type="line"/>
      <point x="1605" y="544" type="line"/>
      <point x="1530" y="546"/>
      <point x="1403" y="546"/>
      <point x="1336" y="546" type="qcurve" smooth="yes"/>
      <point x="878" y="544" type="line"/>
      <point x="875" y="638" type="line"/>
      <point x="1423" y="646" type="line"/>
      <point x="1435" y="677"/>
      <point x="1458" y="774"/>
      <point x="1450" y="814" type="qcurve" smooth="yes"/>
      <point x="1442" y="853"/>
      <point x="1383" y="901"/>
      <point x="1326" y="901" type="qcurve" smooth="yes"/>
      <point x="1195" y="901"/>
      <point x="966" y="692"/>
      <point x="929" y="511" type="qcurve" smooth="yes"/>
      <point x="893" y="334"/>
      <point x="1000" y="117"/>
      <point x="1137" y="112" type="qcurve" smooth="yes"/>
      <point x="1262" y="107"/>
      <point x="1438" y="203"/>
      <point x="1517" y="305" type="qcurve"/>
      <point x="1557" y="250" type="line"/>
      <point x="1578" y="222" type="line"/>
      <point x="1502" y="117"/>
      <point x="1245" y="-32"/>
      <point x="1077" y="-25" type="qcurve" smooth="yes"/>
      <point x="976" y="-21"/>
      <point x="833" y="86"/>
      <point x="794" y="177" type="qcurve"/>
      <point x="716" y="82"/>
      <point x="500" y="-24"/>
      <point x="377" y="-16" type="qcurve" smooth="yes"/>
      <point x="176" y="-2"/>
      <point x="-15" y="301"/>
    </contour>
    <contour>
      <point x="202" y="537" type="qcurve" smooth="yes"/>
      <point x="165" y="359"/>
      <point x="262" y="103"/>
      <point x="393" y="93" type="qcurve" smooth="yes"/>
      <point x="534" y="84"/>
      <point x="722" y="284"/>
      <point x="765" y="488" type="qcurve" smooth="yes"/>
      <point x="801" y="661"/>
      <point x="698" y="892"/>
      <point x="567" y="901" type="qcurve" smooth="yes"/>
      <point x="425" y="911"/>
      <point x="238" y="715"/>
    </contour>
  </outline>
</glyph>
<glyph name="jdotless" format="2">
  <advance width="648"/>
  <unicode hex="0237"/>
  <anchor x="115" y="-436" name="bottom"/>
  <anchor x="347" y="1000" name="top"/>
  <anchor x="27" y="0" name="_liga"/>
  <outline>
    <contour>
      <point x="253" y="822" type="qcurve"/>
      <point x="91" y="818" type="line"/>
      <point x="93" y="915" type="line"/>
      <point x="324" y="1000" type="line"/>
      <point x="394" y="1000" type="line"/>
      <point x="438" y="889" type="line"/>
      <point x="399" y="780" type="line"/>
      <point x="294" y="132" type="line"/>
      <point x="255" y="-164"/>
      <point x="30" y="-464"/>
      <point x="-159" y="-464" type="qcurve"/>
      <point x="-369" y="-425" type="line"/>
      <point x="-351" y="-328" type="line"/>
      <point x="-163" y="-330" type="line" smooth="yes"/>
      <point x="-50" y="-331"/>
      <point x="85" y="-128"/>
      <point x="131" y="112" type="qcurve" smooth="yes"/>
      <point x="163" y="277"/>
      <point x="230" y="662"/>
    </contour>
  </outline>
</glyph>
<glyph name="schwa" format="2">
  <advance width="1006"/>
  <unicode hex="0259"/>
  <outline>
    <contour>
      <point x="894" y="498" type="qcurve" smooth="yes"/>
      <point x="849" y="270"/>
      <point x="487" y="-32"/>
      <point x="310" y="-32" type="qcurve" smooth="yes"/>
      <point x="187" y="-32"/>
      <point x="22" y="111"/>
      <point x="16" y="242" type="qcurve" smooth="yes"/>
      <point x="15" y="266"/>
      <point x="19" y="317"/>
      <point x="23" y="344" type="qcurve" smooth="yes"/>
      <point x="25" y="353" type="line"/>
      <point x="45" y="454" type="line"/>
      <point x="120" y="452"/>
      <point x="257" y="452"/>
      <point x="324" y="452" type="qcurve" smooth="yes"/>
      <point x="802" y="454" type="line"/>
      <point x="767" y="360" type="line"/>
      <point x="210" y="352" type="line"/>
      <point x="199" y="323"/>
      <point x="191" y="265"/>
      <point x="193" y="239" type="qcurve" smooth="yes"/>
      <point x="196" y="178"/>
      <point x="269" y="97"/>
      <point x="341" y="97" type="qcurve" smooth="yes"/>
      <point x="472" y="97"/>
      <point x="701" y="316"/>
      <point x="732" y="487" type="qcurve" smooth="yes"/>
      <point x="764" y="664"/>
      <point x="653" y="881"/>
      <point x="517" y="886" type="qcurve" smooth="yes"/>
      <point x="391" y="891"/>
      <point x="216" y="795"/>
      <point x="140" y="693" type="qcurve"/>
      <point x="99" y="748" type="line"/>
      <point x="77" y="776" type="line"/>
      <point x="151" y="881"/>
      <point x="406" y="1030"/>
      <point x="574" y="1023" type="qcurve" smooth="yes"/>
      <point x="746" y="1016"/>
      <point x="938" y="724"/>
    </contour>
  </outline>
</glyph>
<glyph name="primemod" format="2">
  <advance width="822"/>
  <unicode hex="02B9"/>
  <outline>
    <contour>
      <point x="485" y="1502" type="line"/>
      <point x="674" y="1502" type="line"/>
      <point x="486" y="984" type="line"/>
      <point x="364" y="989" type="line"/>
    </contour>
  </outline>
</glyph>
<glyph name="doubleprimemod" format="2">
  <advance width="1133"/>
  <unicode hex="02BA"/>
  <outline>
    <contour>
      <point x="496" y="1502" type="line"/>
      <point x="685" y="1502" type="line"/>
      <point x="486" y="985" type="line"/>
      <point x="364" y="990" type="line"/>
    </contour>
    <contour>
      <point x="796" y="1502" type="line"/>
      <point x="985" y="1502" type="line"/>
      <point x="786" y="985" type="line"/>
      <point x="664" y="990" type="line"/>
    </contour>
  </outline>
</glyph>
<glyph name="apostrophemod" format="2">
  <advance width="806"/>
  <unicode hex="02BC"/>
  <outline>
    <contour>
      <point x="360" y="1074" type="line"/>
      <point x="403" y="1105"/>
      <point x="517" y="1223"/>
      <point x="537" y="1281" type="qcurve"/>
      <point x="469" y="1281"/>
      <point x="393" y="1353"/>
      <point x="393" y="1409" type="qcurve" smooth="yes"/>
      <point x="393" y="1464"/>
      <point x="478" y="1545"/>
      <point x="538" y="1545" type="qcurve" smooth="yes"/>
      <point x="594" y="1545"/>
      <point x="680" y="1446"/>
      <point x="680" y="1366" type="qcurve" smooth="yes"/>
      <point x="680" y="1267"/>
      <point x="509" y="1071"/>
      <point x="411" y="1012" type="qcurve"/>
    </contour>
  </outline>
</glyph>
<glyph name="alpha" format="2">
  <advance width="1374"/>
  <unicode hex="03B1"/>
  <anchor x="565" y="1000" name="GRKtop"/>
  <outline>
    <contour>
      <point x="341" y="-19" type="qcurve"/>
      <point x="150" y="-5"/>
      <point x="8" y="291"/>
      <point x="58" y="531" type="qcurve" smooth="yes"/>
      <point x="101" y="750"/>
      <point x="396" y="1029"/>
      <point x="602" y="1015" type="qcurve" smooth="yes"/>
      <point x="753" y="1003"/>
      <point x="894" y="771"/>
      <point x="893" y="534" type="qcurve"/>
      <point x="903" y="534" type="line"/>
      <point x="966" y="134" type="line"/>
      <point x="1100" y="134" type="line"/>
      <point x="1102" y="47" type="line"/>
      <point x="848" y="-15" type="line"/>
      <point x="806" y="76" type="line"/>
      <point x="795" y="393" type="line"/>
      <point x="785" y="396" type="line"/>
      <point x="774" y="673"/>
      <point x="686" y="904"/>
      <point x="576" y="913" type="qcurve" smooth="yes"/>
      <point x="451" y="921"/>
      <point x="275" y="704"/>
      <point x="240" y="544" type="qcurve" smooth="yes"/>
      <point x="198" y="357"/>
      <point x="274" y="115"/>
      <point x="376" y="107" type="qcurve" smooth="yes"/>
      <point x="484" y="99"/>
      <point x="709" y="326"/>
      <point x="824" y="601" type="qcurve"/>
      <point x="834" y="601" type="line"/>
      <point x="1019" y="969" type="line"/>
      <point x="1102" y="1000" type="line"/>
      <point x="1147" y="1000" type="line"/>
      <point x="1189" y="921" type="line"/>
      <point x="866" y="401" type="line"/>
      <point x="847" y="401" type="line"/>
      <point x="749" y="180"/>
      <point x="480" y="-29"/>
    </contour>
  </outline>
</glyph>
<glyph name="beta" format="2">
  <advance width="1224"/>
  <unicode hex="03B2"/>
  <outline>
    <contour>
      <point x="7" y="-462" type="line"/>
      <point x="-80" y="-392" type="line"/>
      <point x="62" y="315" type="line"/>
      <point x="200" y="993" type="line" smooth="yes"/>
      <point x="262" y="1296"/>
      <point x="531" y="1547"/>
      <point x="736" y="1533" type="qcurve" smooth="yes"/>
      <point x="912" y="1521"/>
      <point x="1073" y="1283"/>
      <point x="1037" y="1128" type="qcurve"/>
      <point x="1018" y="1034"/>
      <point x="891" y="879"/>
      <point x="797" y="843" type="qcurve"/>
      <point x="796" y="836" type="line"/>
      <point x="923" y="776"/>
      <point x="1055" y="541"/>
      <point x="1018" y="379" type="qcurve"/>
      <point x="980" y="204"/>
      <point x="670" y="-33"/>
      <point x="425" y="-15" type="qcurve" smooth="yes"/>
      <point x="352" y="-7"/>
      <point x="237" y="28"/>
      <point x="181" y="71" type="qcurve"/>
      <point x="87" y="-447" type="line"/>
    </contour>
    <contour>
      <point x="455" y="93" type="qcurve" smooth="yes"/>
      <point x="614" y="83"/>
      <point x="818" y="255"/>
      <point x="847" y="392" type="qcurve" smooth="yes"/>
      <point x="874" y="526"/>
      <point x="783" y="735"/>
      <point x="677" y="784" type="qcurve"/>
      <point x="447" y="741" type="line"/>
      <point x="428" y="777" type="line"/>
      <point x="505" y="937" type="line"/>
      <point x="700" y="909" type="line"/>
      <point x="781" y="942"/>
      <point x="869" y="1062"/>
      <point x="884" y="1133" type="qcurve" smooth="yes"/>
      <point x="909" y="1271"/>
      <point x="809" y="1411"/>
      <point x="716" y="1419" type="qcurve" smooth="yes"/>
      <point x="583" y="1430"/>
      <point x="409" y="1242"/>
      <point x="367" y="1007" type="qcurve"/>
      <point x="200" y="191" type="line"/>
      <point x="249" y="146"/>
      <point x="360" y="99"/>
    </contour>
  </outline>
</glyph>
<glyph name="epsilon" format="2">
  <advance width="1019"/>
  <unicode hex="03B5"/>
  <anchor x="555" y="1000" name="GRKtop"/>
  <outline>
    <contour>
      <point x="316" y="-17" type="qcurve" smooth="yes"/>
      <point x="135" y="-17"/>
      <point x="-39" y="142"/>
      <point x="-9" y="286" type="qcurve" smooth="yes"/>
      <point x="7" y="357"/>
      <point x="139" y="478"/>
      <point x="251" y="507" type="qcurve"/>
      <point x="252" y="514" type="line"/>
      <point x="181" y="540"/>
      <point x="101" y="666"/>
      <point x="120" y="751" type="qcurve" smooth="yes"/>
      <point x="149" y="876"/>
      <point x="439" y="1027"/>
      <point x="623" y="1015" type="qcurve" smooth="yes"/>
      <point x="736" y="1008"/>
      <point x="839" y="912"/>
      <point x="839" y="835" type="qcurve" smooth="yes"/>
      <point x="839" y="757"/>
      <point x="761" y="639"/>
      <point x="696" y="626" type="qcurve"/>
      <point x="673" y="653" type="line"/>
      <point x="673" y="825" type="line" smooth="yes"/>
      <point x="673" y="849"/>
      <point x="632" y="883"/>
      <point x="581" y="886" type="qcurve" smooth="yes"/>
      <point x="466" y="893"/>
      <point x="268" y="799"/>
      <point x="253" y="721" type="qcurve" smooth="yes"/>
      <point x="240" y="661"/>
      <point x="311" y="578"/>
      <point x="370" y="565" type="qcurve"/>
      <point x="601" y="609" type="line"/>
      <point x="620" y="573" type="line"/>
      <point x="543" y="413" type="line"/>
      <point x="349" y="441" type="line"/>
      <point x="267" y="431"/>
      <point x="162" y="350"/>
      <point x="151" y="297" type="qcurve" smooth="yes"/>
      <point x="133" y="213"/>
      <point x="232" y="119"/>
      <point x="348" y="119" type="qcurve" smooth="yes"/>
      <point x="495" y="119"/>
      <point x="675" y="229"/>
      <point x="736" y="316" type="qcurve"/>
      <point x="794" y="252" type="line"/>
      <point x="794" y="223" type="line"/>
      <point x="731" y="132"/>
      <point x="480" y="-17"/>
    </contour>
  </outline>
</glyph>
<glyph name="eta" format="2">
  <advance width="1237"/>
  <unicode hex="03B7"/>
  <anchor x="485" y="1000" name="GRKtop"/>
  <outline>
    <contour>
      <point x="664" y="-462" type="line"/>
      <point x="577" y="-392" type="line"/>
      <point x="740" y="358" type="line"/>
      <point x="792" y="613" type="line" smooth="yes"/>
      <point x="823" y="766"/>
      <point x="785" y="878"/>
      <point x="691" y="878" type="qcurve" smooth="yes"/>
      <point x="601" y="878"/>
      <point x="396" y="738"/>
      <point x="351" y="680" type="qcurve"/>
      <point x="322" y="533" type="line"/>
      <point x="219" y="15" type="line"/>
      <point x="139" y="0" type="line"/>
      <point x="52" y="70" type="line"/>
      <point x="152" y="530" type="line"/>
      <point x="205" y="822" type="line"/>
      <point x="63" y="818" type="line"/>
      <point x="65" y="915" type="line"/>
      <point x="284" y="1000" type="line"/>
      <point x="330" y="1000" type="line"/>
      <point x="354" y="805" type="line"/>
      <point x="436" y="899"/>
      <point x="635" y="1022"/>
      <point x="747" y="1022" type="qcurve" smooth="yes"/>
      <point x="895" y="1022"/>
      <point x="1011" y="840"/>
      <point x="965" y="653" type="qcurve" smooth="yes"/>
      <point x="899" y="343" type="line"/>
      <point x="744" y="-447" type="line"/>
    </contour>
  </outline>
</glyph>
<glyph name="theta" format="2">
  <advance width="1091"/>
  <unicode hex="03B8"/>
  <outline>
    <contour>
      <point x="342" y="-16" type="qcurve" smooth="yes"/>
      <point x="199" y="-7"/>
      <point x="59" y="185"/>
      <point x="97" y="369" type="qcurve" smooth="yes"/>
      <point x="124" y="501" type="line"/>
      <point x="-18" y="498" type="line"/>
      <point x="-16" y="594" type="line"/>
      <point x="203" y="681" type="line"/>
      <point x="248" y="681" type="line"/>
      <point x="290" y="602" type="line"/>
      <point x="247" y="354" type="line" smooth="yes"/>
      <point x="220" y="200"/>
      <point x="284" y="97"/>
      <point x="364" y="91" type="qcurve" smooth="yes"/>
      <point x="510" y="82"/>
      <point x="748" y="385"/>
      <point x="820" y="689" type="qcurve"/>
      <point x="518" y="695"/>
      <point x="233" y="988"/>
      <point x="280" y="1236" type="qcurve" smooth="yes"/>
      <point x="307" y="1369"/>
      <point x="522" y="1546"/>
      <point x="696" y="1535" type="qcurve" smooth="yes"/>
      <point x="918" y="1519"/>
      <point x="1088" y="1133"/>
      <point x="991" y="676" type="qcurve" smooth="yes"/>
      <point x="925" y="376"/>
      <point x="589" y="-32"/>
    </contour>
    <contour>
      <point x="840" y="777" type="qcurve"/>
      <point x="895" y="1063"/>
      <point x="812" y="1410"/>
      <point x="663" y="1421" type="qcurve" smooth="yes"/>
      <point x="580" y="1427"/>
      <point x="451" y="1317"/>
      <point x="432" y="1227" type="qcurve" smooth="yes"/>
      <point x="395" y="1053"/>
      <point x="590" y="809"/>
    </contour>
  </outline>
</glyph>
<glyph name="iota" format="2">
  <advance width="658"/>
  <unicode hex="03B9"/>
  <anchor x="283" y="1000" name="GRKtop"/>
  <outline>
    <contour>
      <point x="98" y="-15" type="line"/>
      <point x="24" y="117" type="line"/>
      <point x="111" y="511" type="line"/>
      <point x="194" y="978" type="line"/>
      <point x="275" y="1000" type="line"/>
      <point x="320" y="1000" type="line"/>
      <point x="362" y="921" type="line"/>
      <point x="261" y="477" type="line"/>
      <point x="207" y="134" type="line"/>
      <point x="462" y="160" type="line"/>
      <point x="462" y="72" type="line"/>
    </contour>
  </outline>
</glyph>
<glyph name="kappa" format="2">
  <advance width="1172"/>
  <unicode hex="03BA"/>
  <outline>
    <contour>
      <point x="73" y="0" type="line"/>
      <point x="175" y="490" type="line"/>
      <point x="262" y="978" type="line"/>
      <point x="343" y="1000" type="line"/>
      <point x="388" y="1000" type="line"/>
      <point x="430" y="921" type="line"/>
      <point x="332" y="490" type="line"/>
      <point x="254" y="0" type="line"/>
    </contour>
    <contour>
      <point x="203" y="204" type="line"/>
      <point x="230" y="342" type="line"/>
      <point x="696" y="845" type="line" smooth="yes"/>
      <point x="792" y="948"/>
      <point x="878" y="1008"/>
      <point x="938" y="1010" type="qcurve"/>
      <point x="1005" y="1010" type="line"/>
      <point x="1023" y="977" type="line"/>
      <point x="993" y="825" type="line"/>
      <point x="905" y="841"/>
      <point x="785" y="798"/>
      <point x="722" y="735" type="qcurve" smooth="yes"/>
    </contour>
    <contour>
      <point x="698" y="-15" type="line"/>
      <point x="656" y="76" type="line"/>
      <point x="423" y="489" type="line"/>
      <point x="533" y="604" type="line"/>
      <point x="814" y="134" type="line"/>
      <point x="950" y="134" type="line"/>
      <point x="952" y="47" type="line"/>
    </contour>
  </outline>
</glyph>
<glyph name="mu" format="2">
  <advance width="1220"/>
  <unicode hex="03BC"/>
  <outline>
    <contour>
      <point x="-1" y="-462" type="line"/>
      <point x="-88" y="-392" type="line"/>
      <point x="62" y="351" type="line"/>
      <point x="175" y="978" type="line"/>
      <point x="257" y="1000" type="line"/>
      <point x="301" y="1000" type="line"/>
      <point x="343" y="921" type="line"/>
      <point x="216" y="334" type="line" smooth="yes"/>
      <point x="193" y="227"/>
      <point x="251" y="142"/>
      <point x="328" y="137" type="qcurve" smooth="yes"/>
      <point x="413" y="132"/>
      <point x="632" y="266"/>
      <point x="689" y="353" type="qcurve"/>
      <point x="802" y="978" type="line"/>
      <point x="884" y="1000" type="line"/>
      <point x="928" y="1000" type="line"/>
      <point x="970" y="921" type="line"/>
      <point x="847" y="358" type="line"/>
      <point x="822" y="134" type="line"/>
      <point x="958" y="134" type="line"/>
      <point x="960" y="47" type="line"/>
      <point x="706" y="-15" type="line"/>
      <point x="664" y="76" type="line"/>
      <point x="672" y="214" type="line"/>
      <point x="598" y="112"/>
      <point x="419" y="-13"/>
      <point x="329" y="-7" type="qcurve" smooth="yes"/>
      <point x="275" y="-3"/>
      <point x="194" y="39"/>
      <point x="173" y="71" type="qcurve"/>
      <point x="79" y="-447" type="line"/>
    </contour>
  </outline>
</glyph>
<glyph name="xi" format="2">
  <advance width="981"/>
  <unicode hex="03BE"/>
  <outline>
    <contour>
      <point x="473" y="-313" type="line"/>
      <point x="492" y="-42" type="line"/>
      <point x="413" y="-27" type="line" smooth="yes"/>
      <point x="165" y="20"/>
      <point x="-29" y="247"/>
      <point x="13" y="438" type="qcurve" smooth="yes"/>
      <point x="37" y="544"/>
      <point x="203" y="710"/>
      <point x="367" y="767" type="qcurve"/>
      <point x="368" y="774" type="line"/>
      <point x="268" y="821"/>
      <point x="180" y="974"/>
      <point x="203" y="1081" type="qcurve" smooth="yes"/>
      <point x="220" y="1162"/>
      <point x="383" y="1316"/>
      <point x="502" y="1346" type="qcurve"/>
      <point x="500" y="1351" type="line"/>
      <point x="269" y="1345" type="line"/>
      <point x="248" y="1429" type="line"/>
      <point x="343" y="1527" type="line"/>
      <point x="989" y="1500" type="line"/>
      <point x="963" y="1375" type="line"/>
      <point x="677" y="1372"/>
      <point x="375" y="1212"/>
      <point x="349" y="1081" type="qcurve" smooth="yes"/>
      <point x="325" y="965"/>
      <point x="450" y="844"/>
      <point x="549" y="825" type="qcurve"/>
      <point x="780" y="869" type="line"/>
      <point x="799" y="833" type="line"/>
      <point x="722" y="673" type="line"/>
      <point x="529" y="701" type="line"/>
      <point x="363" y="677"/>
      <point x="197" y="546"/>
      <point x="174" y="437" type="qcurve" smooth="yes"/>
      <point x="147" y="295"/>
      <point x="297" y="139"/>
      <point x="563" y="105" type="qcurve" smooth="yes"/>
      <point x="641" y="95" type="line"/>
      <point x="687" y="65" type="line"/>
      <point x="570" y="-313" type="line"/>
    </contour>
  </outline>
</glyph>
<glyph name="pi" format="2">
  <advance width="1230"/>
  <unicode hex="03C0"/>
  <outline>
    <contour>
      <point x="1055" y="828" type="line"/>
      <point x="-22" y="850" type="line"/>
      <point x="-20" y="930" type="line"/>
      <point x="147" y="1000" type="line"/>
      <point x="1129" y="1010" type="line"/>
      <point x="1150" y="926" type="line"/>
    </contour>
    <contour>
      <point x="66" y="0" type="line"/>
      <point x="-21" y="70" type="line"/>
      <point x="134" y="535" type="line"/>
      <point x="251" y="917" type="line"/>
      <point x="380" y="917" type="line"/>
      <point x="285" y="535" type="line"/>
      <point x="146" y="15" type="line"/>
    </contour>
    <contour>
      <point x="666" y="-15" type="line"/>
      <point x="624" y="76" type="line"/>
      <point x="708" y="511" type="line"/>
      <point x="785" y="917" type="line"/>
      <point x="928" y="917" type="line"/>
      <point x="864" y="511" type="line"/>
      <point x="802" y="134" type="line"/>
      <point x="938" y="134" type="line"/>
      <point x="940" y="47" type="line"/>
    </contour>
  </outline>
</glyph>
<glyph name="rho" format="2">
  <advance width="1126"/>
  <unicode hex="03C1"/>
  <outline>
    <contour>
      <point x="-37" y="-462" type="line"/>
      <point x="-124" y="-392" type="line"/>
      <point x="22" y="335" type="line"/>
      <point x="39" y="419" type="line" smooth="yes"/>
      <point x="109" y="767"/>
      <point x="404" y="1030"/>
      <point x="599" y="1016" type="qcurve" smooth="yes"/>
      <point x="801" y="1002"/>
      <point x="989" y="702"/>
      <point x="943" y="477" type="qcurve" smooth="yes"/>
      <point x="898" y="259"/>
      <point x="584" y="-32"/>
      <point x="382" y="-16" type="qcurve" smooth="yes"/>
      <point x="309" y="-11"/>
      <point x="188" y="35"/>
      <point x="135" y="78" type="qcurve"/>
      <point x="43" y="-447" type="line"/>
    </contour>
    <contour>
      <point x="398" y="88" type="qcurve" smooth="yes"/>
      <point x="541" y="78"/>
      <point x="734" y="297"/>
      <point x="773" y="487" type="qcurve" smooth="yes"/>
      <point x="809" y="659"/>
      <point x="707" y="891"/>
      <point x="576" y="901" type="qcurve" smooth="yes"/>
      <point x="432" y="912"/>
      <point x="255" y="707"/>
      <point x="203" y="438" type="qcurve" smooth="yes"/>
      <point x="157" y="198" type="line"/>
      <point x="203" y="145"/>
      <point x="321" y="93"/>
    </contour>
  </outline>
</glyph>
<glyph name="finalsigma" format="2">
  <advance width="1104"/>
  <unicode hex="03C2"/>
  <outline>
    <contour>
      <point x="470" y="-313" type="line"/>
      <point x="489" y="-42" type="line"/>
      <point x="389" y="-23" type="line" smooth="yes"/>
      <point x="158" y="21"/>
      <point x="-22" y="273"/>
      <point x="34" y="502" type="qcurve" smooth="yes"/>
      <point x="90" y="723"/>
      <point x="422" y="1017"/>
      <point x="631" y="1017" type="qcurve"/>
      <point x="735" y="1017"/>
      <point x="868" y="924"/>
      <point x="868" y="836" type="qcurve" smooth="yes"/>
      <point x="868" y="759"/>
      <point x="791" y="639"/>
      <point x="725" y="626" type="qcurve"/>
      <point x="702" y="653" type="line"/>
      <point x="702" y="826" type="line" smooth="yes"/>
      <point x="702" y="851"/>
      <point x="645" y="888"/>
      <point x="585" y="888" type="qcurve"/>
      <point x="446" y="888"/>
      <point x="230" y="664"/>
      <point x="192" y="497" type="qcurve" smooth="yes"/>
      <point x="148" y="304"/>
      <point x="327" y="136"/>
      <point x="531" y="109" type="qcurve" smooth="yes"/>
      <point x="638" y="95" type="line"/>
      <point x="684" y="65" type="line"/>
      <point x="567" y="-313" type="line"/>
    </contour>
  </outline>
</glyph>
<glyph name="tau" format="2">
  <advance width="935"/>
  <unicode hex="03C4"/>
  <outline>
    <contour>
      <point x="745" y="828" type="line"/>
      <point x="-22" y="850" type="line"/>
      <point x="-20" y="931" type="line"/>
      <point x="148" y="1000" type="line"/>
      <point x="819" y="1010" type="line"/>
      <point x="840" y="926" type="line"/>
    </contour>
    <contour>
      <point x="217" y="-15" type="line"/>
      <point x="143" y="117" type="line"/>
      <point x="246" y="511" type="line"/>
      <point x="350" y="917" type="line"/>
      <point x="469" y="917" type="line"/>
      <point x="386" y="475" type="line"/>
      <point x="326" y="134" type="line"/>
      <point x="581" y="160" type="line"/>
      <point x="581" y="72" type="line"/>
    </contour>
  </outline>
</glyph>
<glyph name="upsilon" format="2">
  <advance width="1173"/>
  <unicode hex="03C5"/>
  <anchor x="507" y="1000" name="GRKtop"/>
  <outline>
    <contour>
      <point x="383" y="-17" type="qcurve" smooth="yes"/>
      <point x="200" y="-17"/>
      <point x="54" y="178"/>
      <point x="92" y="362" type="qcurve" smooth="yes"/>
      <point x="186" y="820" type="line"/>
      <point x="44" y="817" type="line"/>
      <point x="46" y="913" type="line"/>
      <point x="265" y="1000" type="line"/>
      <point x="310" y="1000" type="line"/>
      <point x="352" y="921" type="line"/>
      <point x="252" y="354" type="line" smooth="yes"/>
      <point x="230" y="229"/>
      <point x="298" y="127"/>
      <point x="395" y="127" type="qcurve" smooth="yes"/>
      <point x="519" y="127"/>
      <point x="705" y="306"/>
      <point x="740" y="472" type="qcurve" smooth="yes"/>
      <point x="766" y="589"/>
      <point x="741" y="842"/>
      <point x="667" y="958" type="qcurve"/>
      <point x="788" y="1018" type="line"/>
      <point x="879" y="921"/>
      <point x="946" y="626"/>
      <point x="908" y="448" type="qcurve" smooth="yes"/>
      <point x="860" y="232"/>
      <point x="566" y="-17"/>
    </contour>
  </outline>
</glyph>
<glyph name="phi" format="2">
  <advance width="1451"/>
  <unicode hex="03C6"/>
  <outline>
    <contour>
      <point x="435" y="-462" type="line"/>
      <point x="348" y="-392" type="line"/>
      <point x="438" y="56" type="line"/>
      <point x="443" y="56" type="line"/>
      <point x="566" y="653" type="line" smooth="yes"/>
      <point x="606" y="845"/>
      <point x="791" y="1028"/>
      <point x="940" y="1017" type="qcurve" smooth="yes"/>
      <point x="1102" y="1008"/>
      <point x="1268" y="720"/>
      <point x="1214" y="455" type="qcurve" smooth="yes"/>
      <point x="1177" y="274"/>
      <point x="804" y="-42"/>
      <point x="482" y="-16" type="qcurve" smooth="yes"/>
      <point x="233" y="1"/>
      <point x="-3" y="327"/>
      <point x="48" y="585" type="qcurve" smooth="yes"/>
      <point x="78" y="735"/>
      <point x="294" y="1009"/>
      <point x="482" y="1068" type="qcurve"/>
      <point x="539" y="969" type="line"/>
      <point x="401" y="905"/>
      <point x="241" y="725"/>
      <point x="213" y="585" type="qcurve" smooth="yes"/>
      <point x="172" y="376"/>
      <point x="330" y="102"/>
      <point x="500" y="93" type="qcurve" smooth="yes"/>
      <point x="701" y="80"/>
      <point x="994" y="256"/>
      <point x="1048" y="479" type="qcurve" smooth="yes"/>
      <point x="1085" y="624"/>
      <point x="1022" y="894"/>
      <point x="912" y="902" type="qcurve" smooth="yes"/>
      <point x="824" y="908"/>
      <point x="734" y="767"/>
      <point x="706" y="628" type="qcurve" smooth="yes"/>
      <point x="592" y="56" type="line"/>
      <point x="597" y="56" type="line"/>
      <point x="515" y="-447" type="line"/>
    </contour>
  </outline>
</glyph>
<glyph name="psi" format="2">
  <advance width="1472"/>
  <unicode hex="03C8"/>
  <outline>
    <contour>
      <point x="456" y="-462" type="line"/>
      <point x="369" y="-392" type="line"/>
      <point x="461" y="56" type="line"/>
      <point x="466" y="56" type="line"/>
      <point x="741" y="1398" type="line"/>
      <point x="806" y="1422" type="line"/>
      <point x="851" y="1422" type="line"/>
      <point x="872" y="1382" type="line"/>
      <point x="621" y="56" type="line"/>
      <point x="626" y="56" type="line"/>
      <point x="536" y="-447" type="line"/>
    </contour>
    <contour>
      <point x="520" y="-17" type="qcurve"/>
      <point x="271" y="-15"/>
      <point x="59" y="197"/>
      <point x="104" y="419" type="qcurve" smooth="yes"/>
      <point x="186" y="820" type="line"/>
      <point x="44" y="817" type="line"/>
      <point x="46" y="913" type="line"/>
      <point x="265" y="1000" type="line"/>
      <point x="310" y="1000" type="line"/>
      <point x="352" y="921" type="line"/>
      <point x="262" y="414" type="line" smooth="yes"/>
      <point x="233" y="250"/>
      <point x="356" y="126"/>
      <point x="551" y="123" type="qcurve"/>
      <point x="734" y="118"/>
      <point x="994" y="280"/>
      <point x="1039" y="469" type="qcurve" smooth="yes"/>
      <point x="1067" y="585"/>
      <point x="1042" y="839"/>
      <point x="967" y="958" type="qcurve"/>
      <point x="1088" y="1018" type="line"/>
      <point x="1180" y="919"/>
      <point x="1246" y="626"/>
      <point x="1209" y="451" type="qcurve" smooth="yes"/>
      <point x="1163" y="229"/>
      <point x="819" y="-20"/>
    </contour>
  </outline>
</glyph>
<glyph name="omega" format="2">
  <advance width="1561"/>
  <unicode hex="03C9"/>
  <anchor x="753" y="1000" name="GRKtop"/>
  <outline>
    <contour>
      <point x="278" y="-15" type="qcurve" smooth="yes"/>
      <point x="115" y="-5"/>
      <point x="-21" y="276"/>
      <point x="20" y="496" type="qcurve" smooth="yes"/>
      <point x="48" y="644"/>
      <point x="244" y="933"/>
      <point x="397" y="1018" type="qcurve"/>
      <point x="495" y="958" type="line"/>
      <point x="362" y="864"/>
      <point x="211" y="624"/>
      <point x="186" y="498" type="qcurve" smooth="yes"/>
      <point x="155" y="338"/>
      <point x="227" y="136"/>
      <point x="335" y="127" type="qcurve" smooth="yes"/>
      <point x="405" y="121"/>
      <point x="535" y="215"/>
      <point x="564" y="310" type="qcurve"/>
      <point x="605" y="688" type="line"/>
      <point x="774" y="737" type="line"/>
      <point x="805" y="712" type="line"/>
      <point x="687" y="310" type="line"/>
      <point x="682" y="231"/>
      <point x="764" y="133"/>
      <point x="843" y="128" type="qcurve" smooth="yes"/>
      <point x="948" y="121"/>
      <point x="1090" y="262"/>
      <point x="1117" y="392" type="qcurve" smooth="yes"/>
      <point x="1153" y="560"/>
      <point x="1110" y="856"/>
      <point x="1018" y="958" type="qcurve"/>
      <point x="1139" y="1018" type="line"/>
      <point x="1254" y="908"/>
      <point x="1333" y="578"/>
      <point x="1286" y="374" type="qcurve" smooth="yes"/>
      <point x="1241" y="182"/>
      <point x="999" y="-27"/>
      <point x="836" y="-15" type="qcurve" smooth="yes"/>
      <point x="727" y="-7"/>
      <point x="621" y="94"/>
      <point x="609" y="193" type="qcurve"/>
      <point x="602" y="193" type="line"/>
      <point x="567" y="112"/>
      <point x="411" y="-23"/>
    </contour>
  </outline>
</glyph>
<glyph name="kaisymbol" format="2">
  <advance width="1172"/>
  <unicode hex="03D7"/>
  <outline>
    <contour>
      <point x="73" y="0" type="line"/>
      <point x="175" y="490" type="line"/>
      <point x="262" y="978" type="line"/>
      <point x="343" y="1000" type="line"/>
      <point x="388" y="1000" type="line"/>
      <point x="430" y="921" type="line"/>
      <point x="332" y="490" type="line"/>
      <point x="254" y="0" type="line"/>
    </contour>
    <contour>
      <point x="203" y="204" type="line"/>
      <point x="230" y="342" type="line"/>
      <point x="696" y="845" type="line" smooth="yes"/>
      <point x="792" y="948"/>
      <point x="878" y="1008"/>
      <point x="938" y="1010" type="qcurve"/>
      <point x="1005" y="1010" type="line"/>
      <point x="1023" y="977" type="line"/>
      <point x="993" y="825" type="line"/>
      <point x="905" y="841"/>
      <point x="785" y="798"/>
      <point x="722" y="735" type="qcurve" smooth="yes"/>
    </contour>
    <contour>
      <point x="316" y="-510" type="qcurve" smooth="yes"/>
      <point x="145" y="-510"/>
      <point x="-117" y="-351"/>
      <point x="-178" y="-194" type="qcurve"/>
      <point x="-88" y="-134" type="line"/>
      <point x="-42" y="-220"/>
      <point x="167" y="-363"/>
      <point x="349" y="-363" type="qcurve" smooth="yes"/>
      <point x="540" y="-363"/>
      <point x="799" y="-155"/>
      <point x="853" y="23" type="qcurve"/>
      <point x="698" y="-15" type="line"/>
      <point x="656" y="76" type="line"/>
      <point x="423" y="489" type="line"/>
      <point x="533" y="604" type="line"/>
      <point x="814" y="134" type="line"/>
      <point x="1017" y="134" type="line"/>
      <point x="997" y="-139"/>
      <point x="619" y="-510"/>
    </contour>
  </outline>
</glyph>
<glyph name="ve" format="2">
  <advance width="1103"/>
  <unicode hex="0432"/>
  <outline>
    <contour>
      <point x="376" y="-17" type="qcurve" smooth="yes"/>
      <point x="148" y="-17"/>
      <point x="-34" y="279"/>
      <point x="21" y="503" type="qcurve" smooth="yes"/>
      <point x="79" y="740"/>
      <point x="422" y="1017"/>
      <point x="606" y="1017" type="qcurve" smooth="yes"/>
      <point x="744" y="1017"/>
      <point x="881" y="877"/>
      <point x="860" y="767" type="qcurve" smooth="yes"/>
      <point x="843" y="679"/>
      <point x="725" y="570"/>
      <point x="645" y="542" type="qcurve"/>
      <point x="644" y="538" type="line"/>
      <point x="747" y="522"/>
      <point x="849" y="388"/>
      <point x="825" y="273" type="qcurve" smooth="yes"/>
      <point x="797" y="140"/>
      <point x="544" y="-17"/>
    </contour>
    <contour>
      <point x="404" y="98" type="qcurve" smooth="yes"/>
      <point x="515" y="98"/>
      <point x="643" y="200"/>
      <point x="660" y="290" type="qcurve" smooth="yes"/>
      <point x="676" y="375"/>
      <point x="582" y="478"/>
      <point x="448" y="471" type="qcurve" smooth="yes"/>
      <point x="90" y="452" type="line"/>
      <point x="109" y="548" type="line"/>
      <point x="448" y="571" type="line" smooth="yes"/>
      <point x="555" y="578"/>
      <point x="672" y="658"/>
      <point x="688" y="736" type="qcurve" smooth="yes"/>
      <point x="703" y="811"/>
      <point x="630" y="899"/>
      <point x="551" y="899" type="qcurve" smooth="yes"/>
      <point x="424" y="899"/>
      <point x="222" y="688"/>
      <point x="178" y="497" type="qcurve" smooth="yes"/>
      <point x="139" y="329"/>
      <point x="245" y="98"/>
    </contour>
  </outline>
</glyph>
<glyph name="ghe" format="2">
  <advance width="975"/>
  <unicode hex="0433"/>
  <anchor x="553" y="1000" name="top"/>
  <anchor x="429" y="533" name="center"/>
  <outline>
    <contour>
      <point x="487" y="891" type="qcurve" smooth="yes"/>
      <point x="407" y="891"/>
      <point x="243" y="792"/>
      <point x="177" y="698" type="qcurve"/>
      <point x="119" y="762" type="line"/>
      <point x="119" y="791" type="line"/>
      <point x="185" y="889"/>
      <point x="387" y="1018"/>
      <point x="527" y="1018" type="qcurve" smooth="yes"/>
      <point x="645" y="1018"/>
      <point x="775" y="900"/>
      <point x="775" y="789" type="qcurve" smooth="yes"/>
      <point x="775" y="686"/>
      <point x="610" y="527"/>
      <point x="427" y="462" type="qcurve" smooth="yes"/>
      <point x="277" y="408"/>
      <point x="176" y="309"/>
      <point x="176" y="235" type="qcurve" smooth="yes"/>
      <point x="176" y="176"/>
      <point x="248" y="110"/>
      <point x="321" y="110" type="qcurve" smooth="yes"/>
      <point x="451" y="110"/>
      <point x="624" y="222"/>
      <point x="692" y="316" type="qcurve"/>
      <point x="750" y="252" type="line"/>
      <point x="750" y="223" type="line"/>
      <point x="684" y="125"/>
      <point x="453" y="-17"/>
      <point x="307" y="-17" type="qcurve" smooth="yes"/>
      <point x="160" y="-17"/>
      <point x="7" y="116"/>
      <point x="7" y="227" type="qcurve" smooth="yes"/>
      <point x="7" y="339"/>
      <point x="157" y="495"/>
      <point x="315" y="547" type="qcurve" smooth="yes"/>
      <point x="474" y="599"/>
      <point x="605" y="708"/>
      <point x="605" y="781" type="qcurve" smooth="yes"/>
      <point x="605" y="843"/>
      <point x="546" y="891"/>
    </contour>
  </outline>
</glyph>
<glyph name="zhe" format="2">
  <advance width="2071"/>
  <unicode hex="0436"/>
  <anchor x="849" y="0" name="bottom"/>
  <anchor x="964" y="1000" name="top"/>
  <anchor x="1648" y="134" name="cy_descender"/>
  <outline>
    <contour>
      <point x="1188" y="503" type="qcurve" smooth="yes"/>
      <point x="1241" y="717"/>
      <point x="1500" y="1017"/>
      <point x="1652" y="1017" type="qcurve" smooth="yes"/>
      <point x="1730" y="1017"/>
      <point x="1822" y="924"/>
      <point x="1822" y="836" type="qcurve" smooth="yes"/>
      <point x="1822" y="759"/>
      <point x="1745" y="639"/>
      <point x="1679" y="626" type="qcurve"/>
      <point x="1656" y="653" type="line"/>
      <point x="1656" y="826" type="line" smooth="yes"/>
      <point x="1656" y="850"/>
      <point x="1632" y="888"/>
      <point x="1604" y="888" type="qcurve" smooth="yes"/>
      <point x="1538" y="888"/>
      <point x="1389" y="685"/>
      <point x="1346" y="497" type="qcurve" smooth="yes"/>
      <point x="1310" y="342"/>
      <point x="1353" y="126"/>
      <point x="1422" y="126" type="qcurve" smooth="yes"/>
      <point x="1491" y="126"/>
      <point x="1602" y="231"/>
      <point x="1659" y="316" type="qcurve"/>
      <point x="1717" y="252" type="line"/>
      <point x="1717" y="223" type="line"/>
      <point x="1655" y="129"/>
      <point x="1480" y="-17"/>
      <point x="1359" y="-17" type="qcurve" smooth="yes"/>
      <point x="1231" y="-17"/>
      <point x="1129" y="264"/>
    </contour>
    <contour>
      <point x="590" y="497" type="qcurve" smooth="yes"/>
      <point x="537" y="283"/>
      <point x="278" y="-17"/>
      <point x="126" y="-17" type="qcurve" smooth="yes"/>
      <point x="48" y="-17"/>
      <point x="-44" y="76"/>
      <point x="-44" y="164" type="qcurve" smooth="yes"/>
      <point x="-44" y="241"/>
      <point x="33" y="361"/>
      <point x="99" y="374" type="qcurve"/>
      <point x="122" y="347" type="line"/>
      <point x="122" y="174" type="line" smooth="yes"/>
      <point x="122" y="150"/>
      <point x="146" y="112"/>
      <point x="174" y="112" type="qcurve" smooth="yes"/>
      <point x="240" y="112"/>
      <point x="389" y="315"/>
      <point x="432" y="503" type="qcurve" smooth="yes"/>
      <point x="468" y="658"/>
      <point x="425" y="874"/>
      <point x="356" y="874" type="qcurve" smooth="yes"/>
      <point x="287" y="874"/>
      <point x="176" y="769"/>
      <point x="119" y="684" type="qcurve"/>
      <point x="61" y="748" type="line"/>
      <point x="61" y="777" type="line"/>
      <point x="123" y="871"/>
      <point x="298" y="1017"/>
      <point x="419" y="1017" type="qcurve" smooth="yes"/>
      <point x="547" y="1017"/>
      <point x="649" y="736"/>
    </contour>
    <contour>
      <point x="817" y="524" type="line"/>
      <point x="885" y="911" type="line"/>
      <point x="854" y="994" type="line"/>
      <point x="1018" y="1021" type="line"/>
      <point x="1060" y="942" type="line"/>
      <point x="972" y="522" type="line"/>
      <point x="888" y="77" type="line"/>
      <point x="919" y="-6" type="line"/>
      <point x="755" y="-29" type="line"/>
      <point x="713" y="50" type="line"/>
    </contour>
    <contour>
      <point x="517" y="545" type="line"/>
      <point x="896" y="563" type="line"/>
      <point x="1287" y="585" type="line"/>
      <point x="1257" y="478" type="line"/>
      <point x="876" y="461" type="line"/>
      <point x="494" y="437" type="line"/>
    </contour>
  </outline>
</glyph>
<glyph name="ze" format="2">
  <advance width="1057"/>
  <unicode hex="0437"/>
  <anchor x="307" y="0" name="bottom"/>
  <outline>
    <contour>
      <point x="316" y="100" type="qcurve" smooth="yes"/>
      <point x="434" y="100"/>
      <point x="591" y="195"/>
      <point x="608" y="290" type="qcurve" smooth="yes"/>
      <point x="624" y="377"/>
      <point x="534" y="480"/>
      <point x="396" y="469" type="qcurve" smooth="yes"/>
      <point x="242" y="457" type="line"/>
      <point x="265" y="566" type="line"/>
      <point x="396" y="573" type="line" smooth="yes"/>
      <point x="507" y="579"/>
      <point x="623" y="657"/>
      <point x="634" y="723" type="qcurve" smooth="yes"/>
      <point x="647" y="800"/>
      <point x="571" y="881"/>
      <point x="486" y="881" type="qcurve" smooth="yes"/>
      <point x="383" y="881"/>
      <point x="230" y="800"/>
      <point x="185" y="732" type="qcurve"/>
      <point x="127" y="796" type="line"/>
      <point x="127" y="825" type="line"/>
      <point x="188" y="911"/>
      <point x="385" y="1018"/>
      <point x="519" y="1018" type="qcurve" smooth="yes"/>
      <point x="675" y="1018"/>
      <point x="824" y="866"/>
      <point x="804" y="747" type="qcurve" smooth="yes"/>
      <point x="790" y="666"/>
      <point x="679" y="562"/>
      <point x="593" y="542" type="qcurve"/>
      <point x="592" y="538" type="line"/>
      <point x="694" y="520"/>
      <point x="792" y="392"/>
      <point x="774" y="282" type="qcurve" smooth="yes"/>
      <point x="752" y="146"/>
      <point x="478" y="-17"/>
      <point x="298" y="-17" type="qcurve" smooth="yes"/>
      <point x="126" y="-17"/>
      <point x="-8" y="75"/>
      <point x="-8" y="164" type="qcurve" smooth="yes"/>
      <point x="-8" y="229"/>
      <point x="71" y="328"/>
      <point x="135" y="341" type="qcurve"/>
      <point x="158" y="314" type="line"/>
      <point x="158" y="174" type="line" smooth="yes"/>
      <point x="158" y="144"/>
      <point x="225" y="100"/>
    </contour>
  </outline>
</glyph>
<glyph name="ka" format="2">
  <advance width="1177"/>
  <unicode hex="043A"/>
  <anchor x="592" y="1000" name="top"/>
  <anchor x="993" y="133" name="cy_descender"/>
  <outline>
    <contour>
      <point x="50" y="56" type="line"/>
      <point x="153" y="527" type="line"/>
      <point x="205" y="820" type="line"/>
      <point x="63" y="816" type="line"/>
      <point x="62" y="915" type="line"/>
      <point x="284" y="1003" type="line"/>
      <point x="329" y="1001" type="line"/>
      <point x="387" y="930" type="line"/>
      <point x="305" y="502" type="line"/>
      <point x="225" y="83" type="line"/>
      <point x="256" y="0" type="line"/>
      <point x="92" y="-23" type="line"/>
    </contour>
    <contour>
      <point x="798" y="133" type="line"/>
      <point x="928" y="133" type="line"/>
      <point x="928" y="46" type="line"/>
      <point x="782" y="1" type="line" smooth="yes"/>
      <point x="748" y="-10"/>
      <point x="698" y="1"/>
      <point x="663" y="41" type="qcurve" smooth="yes"/>
      <point x="295" y="456" type="line"/>
      <point x="402" y="566" type="line"/>
    </contour>
    <contour>
      <point x="793" y="668" type="line"/>
      <point x="793" y="794"/>
      <point x="792" y="865"/>
      <point x="776" y="865" type="qcurve" smooth="yes"/>
      <point x="759" y="865"/>
      <point x="706" y="818"/>
      <point x="660" y="770" type="qcurve" smooth="yes"/>
      <point x="175" y="264" type="line"/>
      <point x="205" y="418" type="line"/>
      <point x="596" y="835" type="line" smooth="yes"/>
      <point x="684" y="929"/>
      <point x="797" y="1013"/>
      <point x="860" y="1013" type="qcurve" smooth="yes"/>
      <point x="919" y="1013"/>
      <point x="986" y="953"/>
      <point x="986" y="900" type="qcurve" smooth="yes"/>
      <point x="986" y="818"/>
      <point x="897" y="668"/>
      <point x="828" y="668" type="qcurve" smooth="yes"/>
    </contour>
  </outline>
</glyph>
<glyph name="bullet" format="2">
  <advance width="1006"/>
  <unicode hex="2022"/>
  <outline>
    <contour>
      <point x="243" y="773" type="qcurve" smooth="yes"/>
      <point x="243" y="889"/>
      <point x="405" y="1061"/>
      <point x="533" y="1061" type="qcurve" smooth="yes"/>
      <point x="657" y="1061"/>
      <point x="819" y="889"/>
      <point x="819" y="773" type="qcurve" smooth="yes"/>
      <point x="819" y="659"/>
      <point x="657" y="487"/>
      <point x="533" y="487" type="qcurve" smooth="yes"/>
      <point x="405" y="487"/>
      <point x="243" y="659"/>
    </contour>
  </outline>
</glyph>
<glyph name="minute" format="2">
  <advance width="806"/>
  <unicode hex="2032"/>
  <outline>
    <contour>
      <point x="290" y="993" type="line"/>
      <point x="511" y="1481" type="line" smooth="yes"/>
      <point x="531" y="1525"/>
      <point x="622" y="1572"/>
      <point x="678" y="1541" type="qcurve" smooth="yes"/>
      <point x="733" y="1511"/>
      <point x="746" y="1404"/>
      <point x="714" y="1368" type="qcurve" smooth="yes"/>
      <point x="349" y="964" type="line"/>
    </contour>
  </outline>
</glyph>
<glyph name="second" format="2">
  <advance width="1206"/>
  <unicode hex="2033"/>
  <outline>
    <contour>
      <point x="293" y="1001" type="line"/>
      <point x="511" y="1482" type="line" smooth="yes"/>
      <point x="531" y="1526"/>
      <point x="622" y="1573"/>
      <point x="678" y="1542" type="qcurve" smooth="yes"/>
      <point x="733" y="1512"/>
      <point x="746" y="1405"/>
      <point x="714" y="1369" type="qcurve" smooth="yes"/>
      <point x="349" y="965" type="line"/>
    </contour>
    <contour>
      <point x="693" y="1001" type="line"/>
      <point x="911" y="1482" type="line" smooth="yes"/>
      <point x="931" y="1526"/>
      <point x="1022" y="1573"/>
      <point x="1078" y="1542" type="qcurve" smooth="yes"/>
      <point x="1133" y="1512"/>
      <point x="1146" y="1405"/>
      <point x="1114" y="1369" type="qcurve" smooth="yes"/>
      <point x="749" y="965" type="line"/>
    </contour>
  </outline>
</glyph>
<glyph name="commercialMinusSign" format="2">
  <advance width="1056"/>
  <unicode hex="2052"/>
  <outline>
    <contour>
      <point x="111" y="-2" type="line"/>
      <point x="844" y="1538" type="line"/>
      <point x="981" y="1487" type="line"/>
      <point x="248" y="-53" type="line"/>
    </contour>
    <contour>
      <point x="528" y="121" type="qcurve" smooth="yes"/>
      <point x="528" y="179"/>
      <point x="609" y="265"/>
      <point x="672" y="265" type="qcurve" smooth="yes"/>
      <point x="735" y="265"/>
      <point x="816" y="179"/>
      <point x="816" y="121" type="qcurve" smooth="yes"/>
      <point x="816" y="64"/>
      <point x="735" y="-22"/>
      <point x="672" y="-22" type="qcurve" smooth="yes"/>
      <point x="609" y="-22"/>
      <point x="528" y="64"/>
    </contour>
    <contour>
      <point x="278" y="1374" type="qcurve" smooth="yes"/>
      <point x="278" y="1432"/>
      <point x="359" y="1518"/>
      <point x="422" y="1518" type="qcurve" smooth="yes"/>
      <point x="485" y="1518"/>
      <point x="566" y="1432"/>
      <point x="566" y="1374" type="qcurve" smooth="yes"/>
      <point x="566" y="1317"/>
      <point x="485" y="1231"/>
      <point x="422" y="1231" type="qcurve" smooth="yes"/>
      <point x="359" y="1231"/>
      <point x="278" y="1317"/>
    </contour>
  </outline>
</glyph>
<glyph name="numero" format="2">
  <advance width="2521"/>
  <unicode hex="2116"/>
  <outline>
    <contour>
      <point x="1489" y="317" type="qcurve" smooth="yes"/>
      <point x="1495" y="381"/>
      <point x="1496" y="382"/>
      <point x="1880" y="377" type="qcurve" smooth="yes"/>
      <point x="2276" y="373"/>
      <point x="2278" y="372"/>
      <point x="2267" y="302" type="qcurve" smooth="yes"/>
      <point x="2258" y="244"/>
      <point x="2257" y="243"/>
      <point x="1870" y="245" type="qcurve" smooth="yes"/>
      <point x="1483" y="247"/>
      <point x="1482" y="248"/>
    </contour>
    <contour>
      <point x="51" y="0" type="line"/>
      <point x="60" y="100" type="line"/>
      <point x="256" y="125" type="line"/>
      <point x="379" y="754" type="line"/>
      <point x="493" y="1362" type="line"/>
      <point x="310" y="1386" type="line"/>
      <point x="323" y="1500" type="line"/>
      <point x="700" y="1500" type="line"/>
      <point x="946" y="820" type="line"/>
      <point x="1138" y="281" type="line"/>
      <point x="1214" y="754" type="line"/>
      <point x="1329" y="1362" type="line"/>
      <point x="1128" y="1386" type="line"/>
      <point x="1144" y="1500" type="line"/>
      <point x="1648" y="1500" type="line"/>
      <point x="1632" y="1386" type="line"/>
      <point x="1438" y="1362" type="line"/>
      <point x="1320" y="754" type="line"/>
      <point x="1189" y="0" type="line"/>
      <point x="1078" y="0" type="line"/>
      <point x="806" y="748" type="line"/>
      <point x="594" y="1328" type="line"/>
      <point x="484" y="754" type="line"/>
      <point x="365" y="125" type="line"/>
      <point x="556" y="100" type="line"/>
      <point x="547" y="0" type="line"/>
    </contour>
    <contour>
      <point x="1574" y="1026" type="qcurve" smooth="yes"/>
      <point x="1615" y="1240"/>
      <point x="1891" y="1524"/>
      <point x="2072" y="1510" type="qcurve" smooth="yes"/>
      <point x="2253" y="1496"/>
      <point x="2419" y="1197"/>
      <point x="2375" y="969" type="qcurve" smooth="yes"/>
      <point x="2335" y="755"/>
      <point x="2060" y="464"/>
      <point x="1878" y="478" type="qcurve" smooth="yes"/>
      <point x="1697" y="492"/>
      <point x="1530" y="795"/>
    </contour>
    <contour>
      <point x="1736" y="1031" type="qcurve" smooth="yes"/>
      <point x="1702" y="853"/>
      <point x="1775" y="597"/>
      <point x="1893" y="587" type="qcurve" smooth="yes"/>
      <point x="2020" y="578"/>
      <point x="2177" y="795"/>
      <point x="2212" y="982" type="qcurve" smooth="yes"/>
      <point x="2246" y="1154"/>
      <point x="2167" y="1386"/>
      <point x="2049" y="1395" type="qcurve" smooth="yes"/>
      <point x="1921" y="1405"/>
      <point x="1768" y="1209"/>
    </contour>
  </outline>
</glyph>
<glyph name="divisionslash" format="2">
  <advance width="878"/>
  <unicode hex="2215"/>
  <outline>
    <contour>
      <point x="79" y="-118" type="line"/>
      <point x="695" y="1555" type="line"/>
      <point x="836" y="1512" type="line"/>
      <point x="220" y="-161" type="line"/>
    </contour>
  </outline>
</glyph>
<glyph name="leftanglebracket" format="2">
  <advance width="1205"/>
  <unicode hex="27E8"/>
  <outline>
    <contour>
      <point x="1167" y="1518" type="line"/>
      <point x="1234" y="1440" type="line"/>
      <point x="316" y="710" type="line"/>
      <point x="951" y="-83" type="line"/>
      <point x="831" y="-177" type="line"/>
      <point x="145" y="622" type="line"/>
      <point x="145" y="801" type="line"/>
    </contour>
  </outline>
</glyph>
<glyph name="rightanglebracket" format="2">
  <advance width="1205"/>
  <unicode hex="27E9"/>
  <outline>
    <contour>
      <point x="72" y="-177" type="line"/>
      <point x="5" y="-99" type="line"/>
      <point x="923" y="631" type="line"/>
      <point x="288" y="1424" type="line"/>
      <point x="408" y="1518" type="line"/>
      <point x="1094" y="719" type="line"/>
      <point x="1094" y="540" type="line"/>
    </contour>
  </outline>
</glyph>
<glyph name="f_f" format="2">
  <advance width="1303"/>
  <unicode hex="FB00"/>
  <outline>
    <contour>
      <point x="-340" y="-405" type="line" smooth="yes"/>
      <point x="-330" y="-305" type="line"/>
      <point x="-196" y="-303" type="line" smooth="yes"/>
      <point x="-78" y="-301"/>
      <point x="27" y="-155"/>
      <point x="81" y="147" type="qcurve" smooth="yes"/>
      <point x="216" y="905" type="line"/>
      <point x="228" y="942" type="line"/>
      <point x="283" y="1203" type="line" smooth="yes"/>
      <point x="320" y="1379"/>
      <point x="477" y="1516"/>
      <point x="587" y="1516" type="qcurve" smooth="yes"/>
      <point x="672" y="1516"/>
      <point x="770" y="1445"/>
      <point x="770" y="1395" type="qcurve" smooth="yes"/>
      <point x="770" y="1354"/>
      <point x="716" y="1303"/>
      <point x="689" y="1303" type="qcurve" smooth="yes"/>
      <point x="673" y="1303"/>
      <point x="667" y="1312"/>
      <point x="667" y="1330" type="qcurve" smooth="yes"/>
      <point x="667" y="1357"/>
      <point x="624" y="1386"/>
      <point x="590" y="1386" type="qcurve" smooth="yes"/>
      <point x="529" y="1386"/>
      <point x="435" y="1297"/>
      <point x="420" y="1197" type="qcurve" smooth="yes"/>
      <point x="382" y="938" type="line"/>
      <point x="381" y="913" type="line"/>
      <point x="250" y="214" type="line" smooth="yes"/>
      <point x="170" y="-210"/>
      <point x="-9" y="-447"/>
      <point x="-155" y="-447" type="qcurve"/>
    </contour>
    <contour>
      <point x="236" y="-317" type="line" smooth="yes"/>
      <point x="246" y="-217" type="line"/>
      <point x="380" y="-215" type="line" smooth="yes"/>
      <point x="498" y="-213"/>
      <point x="603" y="-67"/>
      <point x="657" y="235" type="qcurve" smooth="yes"/>
      <point x="776" y="905" type="line"/>
      <point x="788" y="942" type="line"/>
      <point x="855" y="1269" type="line" smooth="yes"/>
      <point x="891" y="1445"/>
      <point x="1049" y="1582"/>
      <point x="1159" y="1582" type="qcurve" smooth="yes"/>
      <point x="1244" y="1582"/>
      <point x="1342" y="1511"/>
      <point x="1342" y="1461" type="qcurve" smooth="yes"/>
      <point x="1342" y="1420"/>
      <point x="1288" y="1369"/>
      <point x="1261" y="1369" type="qcurve" smooth="yes"/>
      <point x="1245" y="1369"/>
      <point x="1239" y="1378"/>
      <point x="1239" y="1396" type="qcurve" smooth="yes"/>
      <point x="1239" y="1423"/>
      <point x="1196" y="1452"/>
      <point x="1162" y="1452" type="qcurve" smooth="yes"/>
      <point x="1101" y="1452"/>
      <point x="1007" y="1363"/>
      <point x="992" y="1263" type="qcurve" smooth="yes"/>
      <point x="942" y="938" type="line"/>
      <point x="941" y="913" type="line"/>
      <point x="826" y="302" type="line" smooth="yes"/>
      <point x="746" y="-122"/>
      <point x="567" y="-359"/>
      <point x="421" y="-359" type="qcurve"/>
    </contour>
    <contour>
      <point x="37" y="864" type="line"/>
      <point x="31" y="938" type="line"/>
      <point x="240" y="980" type="line"/>
      <point x="1160" y="978" type="line"/>
      <point x="1150" y="856" type="line"/>
      <point x="327" y="865" type="line"/>
      <point x="240" y="847" type="line"/>
    </contour>
  </outline>
</glyph>
<glyph name="fi" format="2">
  <advance width="1285"/>
  <unicode hex="FB01"/>
  <outline>
    <contour>
      <point x="89" y="194" type="qcurve" smooth="yes"/>
      <point x="216" y="905" type="line"/>
      <point x="228" y="942" type="line"/>
      <point x="281" y="1190" type="line" smooth="yes"/>
      <point x="335" y="1443"/>
      <point x="526" y="1582"/>
      <point x="636" y="1582" type="qcurve" smooth="yes"/>
      <point x="721" y="1582"/>
      <point x="829" y="1508"/>
      <point x="829" y="1458" type="qcurve" smooth="yes"/>
      <point x="829" y="1417"/>
      <point x="775" y="1366"/>
      <point x="748" y="1366" type="qcurve" smooth="yes"/>
      <point x="732" y="1366"/>
      <point x="726" y="1375"/>
      <point x="726" y="1393" type="qcurve" smooth="yes"/>
      <point x="726" y="1420"/>
      <point x="673" y="1452"/>
      <point x="639" y="1452" type="qcurve" smooth="yes"/>
      <point x="578" y="1452"/>
      <point x="451" y="1362"/>
      <point x="422" y="1184" type="qcurve" smooth="yes"/>
      <point x="382" y="938" type="line"/>
      <point x="381" y="913" type="line"/>
      <point x="259" y="260" type="line" smooth="yes"/>
      <point x="171" y="-210"/>
      <point x="-9" y="-447"/>
      <point x="-155" y="-447" type="qcurve"/>
      <point x="-338" y="-405" type="line"/>
      <point x="-330" y="-305" type="line"/>
      <point x="-196" y="-303" type="line" smooth="yes"/>
      <point x="-78" y="-301"/>
      <point x="27" y="-155"/>
    </contour>
    <contour>
      <point x="37" y="864" type="line"/>
      <point x="31" y="938" type="line"/>
      <point x="240" y="980" type="line"/>
      <point x="781" y="978" type="line"/>
      <point x="771" y="856" type="line"/>
      <point x="327" y="865" type="line"/>
      <point x="240" y="847" type="line"/>
    </contour>
    <contour>
      <point x="646" y="-21" type="line"/>
      <point x="605" y="68" type="line"/>
      <point x="699" y="527" type="line"/>
      <point x="760" y="845" type="line"/>
      <point x="680" y="865" type="line"/>
      <point x="682" y="947" type="line"/>
      <point x="844" y="999" type="line"/>
      <point x="904" y="999" type="line"/>
      <point x="953" y="883" type="line"/>
      <point x="904" y="739" type="line"/>
      <point x="788" y="140" type="line"/>
      <point x="979" y="164" type="line"/>
      <point x="979" y="76" type="line"/>
    </contour>
  </outline>
</glyph>
<glyph name="fl" format="2">
  <advance width="1278"/>
  <unicode hex="FB02"/>
  <outline>
    <contour>
      <point x="-336" y="-405" type="line"/>
      <point x="-328" y="-305" type="line"/>
      <point x="-194" y="-303" type="line" smooth="yes"/>
      <point x="-76" y="-301"/>
      <point x="29" y="-155"/>
      <point x="91" y="194" type="qcurve" smooth="yes"/>
      <point x="218" y="905" type="line"/>
      <point x="230" y="942" type="line"/>
      <point x="283" y="1190" type="line" smooth="yes"/>
      <point x="337" y="1443"/>
      <point x="528" y="1582"/>
      <point x="638" y="1582" type="qcurve" smooth="yes"/>
      <point x="723" y="1582"/>
      <point x="831" y="1508"/>
      <point x="831" y="1458" type="qcurve" smooth="yes"/>
      <point x="831" y="1417"/>
      <point x="777" y="1366"/>
      <point x="750" y="1366" type="qcurve" smooth="yes"/>
      <point x="734" y="1366"/>
      <point x="728" y="1375"/>
      <point x="728" y="1393" type="qcurve" smooth="yes"/>
      <point x="728" y="1420"/>
      <point x="675" y="1452"/>
      <point x="641" y="1452" type="qcurve" smooth="yes"/>
      <point x="580" y="1452"/>
      <point x="453" y="1362"/>
      <point x="424" y="1184" type="qcurve" smooth="yes"/>
      <point x="384" y="938" type="line"/>
      <point x="383" y="913" type="line"/>
      <point x="261" y="260" type="line" smooth="yes"/>
      <point x="173" y="-210"/>
      <point x="-7" y="-447"/>
      <point x="-153" y="-447" type="qcurve"/>
    </contour>
    <contour>
      <point x="39" y="864" type="line"/>
      <point x="33" y="938" type="line"/>
      <point x="242" y="980" type="line"/>
      <point x="722" y="978" type="line"/>
      <point x="712" y="856" type="line"/>
      <point x="329" y="865" type="line"/>
      <point x="242" y="847" type="line"/>
    </contour>
    <contour>
      <point x="666" y="-14" type="line"/>
      <point x="619" y="86" type="line"/>
      <point x="728" y="606" type="line"/>
      <point x="868" y="1365" type="line"/>
      <point x="744" y="1457" type="line"/>
      <point x="772" y="1529" type="line"/>
      <point x="973" y="1563" type="line"/>
      <point x="1060" y="1493" type="line"/>
      <point x="886" y="588" type="line"/>
      <point x="803" y="134" type="line"/>
      <point x="999" y="154" type="line"/>
      <point x="999" y="66" type="line"/>
    </contour>
  </outline>
</glyph>
<glyph name="f_f_i" format="2">
  <advance width="1805"/>
  <unicode hex="FB03"/>
  <outline>
    <contour>
      <point x="-338" y="-405" type="line" smooth="yes"/>
      <point x="-328" y="-305" type="line"/>
      <point x="-194" y="-303" type="line" smooth="yes"/>
      <point x="-76" y="-301"/>
      <point x="29" y="-153"/>
      <point x="83" y="149" type="qcurve" smooth="yes"/>
      <point x="218" y="907" type="line"/>
      <point x="230" y="942" type="line"/>
      <point x="285" y="1203" type="line" smooth="yes"/>
      <point x="322" y="1379"/>
      <point x="479" y="1516"/>
      <point x="589" y="1516" type="qcurve" smooth="yes"/>
      <point x="674" y="1516"/>
      <point x="772" y="1445"/>
      <point x="772" y="1395" type="qcurve" smooth="yes"/>
      <point x="772" y="1354"/>
      <point x="718" y="1303"/>
      <point x="691" y="1303" type="qcurve" smooth="yes"/>
      <point x="675" y="1303"/>
      <point x="669" y="1312"/>
      <point x="669" y="1330" type="qcurve" smooth="yes"/>
      <point x="669" y="1357"/>
      <point x="626" y="1386"/>
      <point x="592" y="1386" type="qcurve" smooth="yes"/>
      <point x="531" y="1386"/>
      <point x="437" y="1297"/>
      <point x="422" y="1197" type="qcurve" smooth="yes"/>
      <point x="384" y="938" type="line"/>
      <point x="383" y="913" type="line"/>
      <point x="252" y="214" type="line" smooth="yes"/>
      <point x="172" y="-210"/>
      <point x="-7" y="-447"/>
      <point x="-153" y="-447" type="qcurve"/>
    </contour>
    <contour>
      <point x="238" y="-317" type="line" smooth="yes"/>
      <point x="248" y="-217" type="line"/>
      <point x="382" y="-215" type="line" smooth="yes"/>
      <point x="500" y="-213"/>
      <point x="605" y="-67"/>
      <point x="659" y="235" type="qcurve" smooth="yes"/>
      <point x="778" y="905" type="line"/>
      <point x="790" y="942" type="line"/>
      <point x="843" y="1190" type="line" smooth="yes"/>
      <point x="897" y="1443"/>
      <point x="1088" y="1582"/>
      <point x="1198" y="1582" type="qcurve" smooth="yes"/>
      <point x="1283" y="1582"/>
      <point x="1391" y="1508"/>
      <point x="1391" y="1458" type="qcurve" smooth="yes"/>
      <point x="1391" y="1417"/>
      <point x="1337" y="1366"/>
      <point x="1310" y="1366" type="qcurve" smooth="yes"/>
      <point x="1294" y="1366"/>
      <point x="1288" y="1375"/>
      <point x="1288" y="1393" type="qcurve" smooth="yes"/>
      <point x="1288" y="1420"/>
      <point x="1235" y="1452"/>
      <point x="1201" y="1452" type="qcurve" smooth="yes"/>
      <point x="1140" y="1452"/>
      <point x="1013" y="1362"/>
      <point x="984" y="1184" type="qcurve" smooth="yes"/>
      <point x="944" y="938" type="line"/>
      <point x="943" y="913" type="line"/>
      <point x="828" y="302" type="line" smooth="yes"/>
      <point x="748" y="-122"/>
      <point x="569" y="-359"/>
      <point x="423" y="-359" type="qcurve"/>
    </contour>
    <contour>
      <point x="1208" y="-21" type="line"/>
      <point x="1167" y="68" type="line"/>
      <point x="1261" y="527" type="line"/>
      <point x="1312" y="827" type="line"/>
      <point x="1229" y="848" type="line"/>
      <point x="1231" y="948" type="line"/>
      <point x="1396" y="1001" type="line"/>
      <point x="1466" y="1001" type="line"/>
      <point x="1515" y="885" type="line"/>
      <point x="1464" y="742" type="line"/>
      <point x="1350" y="140" type="line"/>
      <point x="1541" y="164" type="line"/>
      <point x="1541" y="76" type="line"/>
    </contour>
    <contour>
      <point x="39" y="864" type="line"/>
      <point x="33" y="938" type="line"/>
      <point x="242" y="980" type="line"/>
      <point x="1304" y="967" type="line"/>
      <point x="1294" y="845" type="line"/>
      <point x="329" y="865" type="line"/>
      <point x="242" y="847" type="line"/>
    </contour>
  </outline>
</glyph>
